<svg
      xmlns="http://www.w3.org/2000/svg"
      width="1072.947"
      height="1077.827"
      version="1.1"
      viewBox="0 0 1072.947 1077.827"
      xmlSpace="preserve"
    >
      <g transform="matrix(1.33333 0 0 -1.33333 0 1077.827)">
        <g
          fillOpacity="1"
          fillRule="nonzero"
          stroke="none"
          strokeWidth="1"
          transform="scale(.1)"
        >
          <path
            fill="#1e1e1e"
            d="M4551.064 2220.917c17.218-32.172 22.634-25.65 7.644-14.001 28.866 2.007 57.24 10.805 83.036 25.906 41.032 24.22 127.734 91.466 245.725 183.828 56.048 43.86 109 85.277 134.886 103.729 29.1 20.996 41.641 58.68 30.447 92.502-6.957 20.933-22.582 37.85-42.042 47.683 182.292 133.344 363.768 226.409 476.136 252.61 6.323 14.347 11.635 28.08 14.693 40.356 3.096 12.25 3.705 20.357 3.588 25.306-2.125.166-4.69.281-7.735.281-4.236 0-8.719-.205-13.435-.601-104.97-8.836-310.895-108.499-517.532-259.668 19.46-9.846 35.086-26.764 42.043-47.683 11.194-33.835-1.347-71.506-30.447-92.515-25.886-18.44-78.838-59.857-134.886-103.73-117.991-92.348-204.693-159.595-245.725-183.827-25.796-15.102-54.17-23.899-83.036-25.907 14.99-11.649 27.558-26.635 36.64-44.269zm-746.557-366.837c206.067 170.12 361.54 334.013 445.768 472.344 22.673 37.543 41.59 74.536 57.59 110.992-8.396 70.176 12.982 155.926 57.758 244.452 1.127 106.58-32.947 202.982-102.573 284.053-2.371 2.813-4.91 5.166-7.32 7.915 101.562-159.033 85.199-365.686-49.74-589.141-87.712-144.06-252.073-315.753-471.057-493.417 25.213-9.808 48.288-22.518 69.574-37.198zm3274.384 68.002c16.894 1.599 36.264 7.877 57.292 17.595 12.515 41.213 35.175 96.799 75.611 169.136 65.895 116.452 169.764 261.765 270.537 400.671l22.388 30.894c72.58 100.11 141.157 194.633 189.03 270.908 149.046 240.602 125.402 450.094 37.883 548.593-3.99 4.86-8.629 8.657-12.995 12.915 59.352-109.803 59.974-294.769-69.173-503.224-47.872-76.288-116.449-170.81-189.03-270.921l-22.387-30.894c-100.773-138.906-204.642-284.206-270.537-400.671-76.156-136.26-90.407-214.709-89.397-245.078.454.038.739.077.778.077zm-810.482-2.43c17.374 99.894 80.081 273.083 227.872 480.566 208.204 291.88 433.614 482.33 568.552 559.667 15.897 41.175 23.93 71.442 26.962 91.901-112.058-36.188-388.67-241.229-639.798-593.284-197.53-277.314-243.122-493.43-231.526-555.063 13.073 2.301 29.112 7.43 47.938 16.214zm-830.15-15.408c-4.625 5.588-9.704 10.754-14.653 16.035 3.77-6.176 7.748-12.186 11.194-18.643 1.153.831 2.293 1.764 3.46 2.608zm-106.344 116.568c214.411 163.291 377.49 322.107 467.496 457.779 159.632 242.316 172.82 469.53 37.533 639.177-5.48 6.981-11.284 13.03-16.933 19.551 104.918-164.762 82.932-376.082-64.884-600.458-93.414-140.798-264.94-306.456-491.49-476.269 24.901-10.74 47.497-24.257 68.278-39.78zM2906.066 1585.32c-146.935-245.168-399.281-435.018-643.426-476.154-34.994-5.87-68.862-8.836-100.734-8.836-107.626 0-197.256 34.257-260.093 98.665 11.634-19.423 24.992-57.273 40.164-73.487 63.005-67.376 154.074-83.45 264.213-83.45 31.872 0 65.74 2.968 100.747 8.824 232.342 39.154 471.94 213.136 621.22 441.181-11.311 31.137-19.344 62.3-22.09 93.257zm1531.58 108.805c-9.393 30.267-14.977 60.394-16.506 90.175-125.247-156.719-318.862-282.979-452.971-358.615-37.171-449.403-462.507-1096.495-728.872-1283.251-42.651-29.244-93.893-59.895-156.082-69.294-12.464-1.892-24.681-2.813-36.795-2.813-72.218 0-141.04 32.543-204.577 96.696-16.454 16.65-35.422 35.856-54.61 58.08 32.274-48.566 69.548-86.672 98.894-116.35 63.537-64.166 132.36-96.71 204.577-96.71 12.127 0 24.331.934 36.795 2.814 62.19 9.398 113.43 40.062 156.082 69.293 266.365 186.769 691.7 833.848 728.872 1283.252 124.78 70.38 300.387 184.953 425.193 326.723zm1041.878-107.68c-54.7-448.074-506.26-1079.655-780.63-1256.77-43.91-27.683-96.46-56.48-159.115-63.628a252.995 252.995 0 00-28.076-1.573c-75.586 0-146.196 35.037-209.98 104.202-12.01 13.069-25.497 27.85-39.308 44.129 27.868-41.571 58.717-75.368 83.593-102.4 63.783-69.178 134.393-104.202 209.98-104.202 9.328 0 18.682.524 28.075 1.56 62.656 7.161 115.193 35.958 159.114 63.642 274.384 177.114 725.93 808.683 780.631 1256.77 79.305 40.675 190.364 103.741 295.918 184.057-15.12 18.746-29.139 38.643-40.747 60.892-106.603-81.582-219.27-145.543-299.455-186.679zm2435.113 801.394c-9.717 24.079-24.992 43.656-44.141 57.798 25.38-63.245 13.513-189.518-70.352-329.486-143.554-234.682-454.37-485.04-726.747-498.812-8.136-.397-16.027-.653-23.813-.653-143.23.128-257.179 42.364-331.365 117.693 67.954-111.146 199.187-175.81 375.649-175.963 7.773 0 15.677.243 23.813.639 272.376 13.784 583.18 264.13 726.747 498.813 84.046 140.287 95.81 266.867 70.21 329.971zm-5696.112 221.115c176.695 297.186 213.153 562.352 108.43 787.84-26.807 58.182-58.796 108.052-95.487 150.134 18.63-28.08 35.836-58.501 51.202-91.863 104.724-225.475 68.266-490.654-108.43-787.84-232.613-389.828-726.863-772.904-1259.294-976.054-30.615-11.163-60.647-19.602-90.485-25.587-35.655-7.147-71.35-10.805-105.942-10.805h-.039a479.05 479.05 0 00-46.447 2.251c-93.129-229.708-185.286-488.852-287.69-808.862-22.752-75.994-73.332-97.809-101.421-103.921-8.474-1.854-17.387-2.813-26.301-2.813-28.374 0-56.087 9.322-84.772 28.528-11.868 8.618-23.707 18.835-35.23 30.51 23.155-39.666 51.36-68.334 79.501-88.794 28.698-19.193 56.411-28.515 84.785-28.515 8.914 0 17.827.959 26.3 2.813 28.077 6.1 78.67 27.914 101.421 103.921 102.418 320.01 194.562 579.154 287.69 808.85a479.041 479.041 0 0146.435-2.239h.052c34.593 0 70.287 3.658 105.942 10.793 29.838 5.984 59.87 14.424 90.486 25.6 532.43 203.136 1026.68 586.225 1259.294 976.053zM6162.88 1578.326c-13.228-.92-26.171-1.394-38.868-1.394-117.823 0-215.771 39.87-284.957 112.08 67.98-108.422 183.018-170.363 329.24-170.363 12.698 0 25.64.486 38.869 1.406 187.773 13.516 358.288 122.002 490.389 239.03-15.366 19.104-29.333 39.32-40.138 61.8-132.645-118.383-304.858-228.902-494.535-242.559zm-3896.16-160.798h.156c14.886 3.12 30.758 9.412 47.147 17.697 6.323 40.83 20.095 96.505 47.692 170.197 45.346 119.061 118.768 264.809 196.388 416.183l13.552 26.341c47.782 93.078 92.96 181.027 126.14 254.208 77.737 170.171 81.119 323.59 42.898 429.558 18.113-3.939 36.757-5.946 55.725-5.946 13.15 0 26.456.959 39.529 2.928 58.885 8.72 111.681 36.801 148.67 79.101 77.103 88.346 120.61 245.73 34.646 381.197-11.674 19.142-25.563 36.38-40.734 52.082 80.82-134.047 37.74-288.005-38.182-374.995-37.003-42.3-89.799-70.38-148.684-79.101a266.272 266.272 0 00-39.53-2.941c-18.967 0-37.61 2.02-55.723 5.946 38.22-105.967 34.839-259.374-42.898-429.545-33.18-73.194-78.359-161.13-126.14-254.208l-13.553-26.355c-77.62-151.36-151.042-297.108-196.389-416.182-52.783-140.952-55.685-217.406-50.71-246.165zM3499.12 2511.645c165.385 125.749 323.294 210.86 424.274 237.815 5.96 14.948 10.883 29.206 13.513 41.853 2.604 12.416 2.889 20.612 2.565 25.548-1.062.037-2.203.09-3.46.09-5.376 0-11.116-.448-17.309-1.164-98.168-11.905-284.14-106.504-478.365-256.625 25.68-5.933 47.29-23.605 58.782-47.517zm-2435.035-152.038l19.577 38.962c29.514 58.859 58.483 116.618 86.404 173.137 91.263 178.803 139.81 326.686 147.427 449.8 40.747 19.692 83.114 41.188 127.242 63.565l14.692 7.417c131.958 66.966 296.229 150.363 411.136 169.774 15.34 2.609 29.217 3.926 41.305 3.926 5.869 0 10.766-.345 15.249-.857-1.814 15.6-5.377 28.656-10.482 38.49-4.314 8.477-10.546 20.65-49.051 20.65-12.088 0-25.964-1.33-41.304-3.938-114.908-19.398-279.179-102.795-411.137-169.762l-14.692-7.43c-44.128-22.377-86.495-43.872-127.242-63.551-7.618-123.127-56.164-270.998-147.427-449.8-27.92-56.519-56.89-114.291-86.417-173.138l-19.564-38.975c-35.085-70.175-71.557-143.369-108.883-220.782 32.973 15.728 65.04 31.853 96.38 48.31 19.24 38.975 38.234 77.08 56.787 114.202zM714.852 2914.95c8.15 15.588 16.247 31.47 24.422 46.852-104.724 10.102-193.81 48.13-252.721 107.655 8.693-15.537 18.773-30.446 30.77-44.371 45.982-53.425 115.09-91.121 197.53-110.136"
          ></path>
          <path
            fill="#1e1e1e"
            d="M2804.71 2876.794c39.258 5.831 73.993 24.091 97.884 51.443 57.603 65.969 90.978 183.303 26.378 285.089-42.34 69.408-120.025 108.806-192.955 97.95-35.5-5.282-66.71-22.2-90.304-48.873-65.804-74.587-97.533-204.198-14.226-312.581 41.602-55.714 106.253-83.002 173.224-73.028zm5013.611-452.625c-11.116 27.569-30.42 31.11-40.954 30.778-18.916-.626-38.26-13.759-54.7-37.364-175.27-270.09-438.293-552.634-610.389-568.937a161.91 161.91 0 00-8.913-.69c-33.142-1.688-55.763 7.429-69.108 27.888-34.813 53.182-3.265 180.35 85.899 339.805 67.825 119.892 172.744 266.803 275.486 408.433 80.548 111.134 157.235 215.809 208.126 296.866 125.83 203.047 111.863 377.694 44.207 453.88-14.045 17.134-30.771 25.458-49.713 24.768-25.99-.96-53.289-18.644-83.373-54.102-42.379-50.228-90.9-115.161-154.333-207.267.7 72.017-22.038 133.153-66.024 175.299-46.85 44.883-116.67 66.506-201.662 62.4-104.037-5.203-494.949-70.61-992.334-710.912-116.67-150.747-198.565-309.333-238.159-458.137-129.444-182.536-282.223-327.938-443.85-422.256-17.465 75.01-52.978 134.009-105.748 175.311-56.838 45.075-137.516 65.918-233.987 60.509 290.437 197.868 520.99 402.666 631.895 569.717 137.93 209.39 154.294 402.552 41.447 544.016-80.678 102.961-178.95 141.707-327.362 128.83-36.083-3.146-76.26-9.335-122.76-19.002-222.598-44.448-482.938-185.35-661.214-358.052-161.2-155.76-238.937-332.414-224.516-433.944 10.131-71.416 93.154-123.165 163.778-81.85 64.43 38.08 304.572 233.787 374.237 283.388 10.015 7.212-162.444-27.684-240.88-50.19 273.283 258.441 617.708 451.22 788.871 465.567 43.338 3.708 73.798-3.708 90.511-21.917 21.624-23.618 26.729-58.834 15.16-104.701-43.896-175.95-333.076-493.557-860.83-822.007-185.493-115.417-255.028-261.459-198.98-410.045 10.04-24.475 29.773-26.124 40.656-24.91 15.068 1.65 32.235 10 52.472 25.383 148.14 110.813 304.87 160.479 401.42 169.967 59.559 5.869 103.92-2.468 121.67-22.467 31.561-37.083 37.715-99.139 18.812-184.442-301.825-141.86-714.866-381.26-887.247-774.465-109.233-249.95 13.241-380.238 92.87-466.806 53.508-58.015 107.95-82.963 166.9-76.237 45.93 5.23 87.894 28.58 122.992 50.714 262.62 169.557 722.666 812.8 747.373 1240.708 84.176 40.932 272.377 139.815 417.718 274.91 32.326-172.945 156.899-266.751 338.44-253.709 228.675 16.457 432.681 198.738 548.328 323.4 2.112-179.864 128.473-284.706 344.45-284.846 6.44 0 12.944.179 19.5.498h.039c242.68 12.327 529.917 247.073 659.271 458.585 73.215 122.142 78.656 222.815 64.508 257.635zM4491.83 591.365c-5.844-.678-8.577 1.176-10.093 2.775-15.936 16.815-18.786 57.465-7.67 111.58 42.794 209.44 261.661 546.624 652.547 795.538-162.12-393.805-538.87-898.218-634.784-909.893zm1747.415 1236.86h-.026c-29.28-1.368-49.816 9.36-62.837 32.773-48.935 88.167 22.077 357.375 232.86 653.333 265.536 372.245 596.072 627.655 732.11 633.87 3.007.14 5.792.154 8.396.038 21.015-.933 35.19-9.296 43.559-25.561 34.049-65.688-29.747-272.954-297.29-661.823-278.609-402.168-500.612-621.684-656.772-632.63zm-1801.507 98.665c62.772 111.951 84.668 229.49 64.767 264.604-9.678 19.385-28.309 29.538-49.777 27.147-21.598-2.417-41.926-17.058-52.848-37.926-134.575-244.784-306.84-437.767-499.911-560.396-20.302 74.293-57.914 131.912-112.07 171.284-58.303 42.939-139.447 60.854-235.296 51.992 281.588 208.046 503.228 420.863 607.214 591.673 129.263 214.107 138.15 407.577 20.328 544.77-84.293 99.918-183.653 135.083-330.912 116.874-35.798-4.437-75.612-12.071-121.516-23.375-219.904-52.414-479.725-197.382-644.644-381.35-386.998-431.68-99.412-573.298 15.094-499.337 69.873 45.125 287.367 233.979 350.58 287.429 3.213 2.736.53 8.209-3.59 7.212-79.46-19.462-160.28-34.73-238.586-60.1-1.36-.435-32.96-7.864 4.69 29.385 254.471 245.947 562.308 429.724 722.614 449.122 43.027 5.268 73.668-1.036 90.978-18.644 22.44-22.812 28.866-57.772 19.123-104.01-36.925-177.294-312.618-504.861-825.472-851.84-180.246-121.925-243.86-270.281-182.319-416.643 10.896-24.09 30.629-24.986 41.447-23.413 14.938 2.187 31.716 11.15 51.254 27.237 143.243 115.979 297.382 171.194 393.153 184.147 59.08 8.005 103.623 1.279 122.034-18.055 32.818-35.906 41.395-97.643 25.821-183.521-295.075-152.512-697.064-406.451-853.548-805.269-99.153-253.53 27.869-379.24 110.503-462.843 55.504-56.007 110.67-78.96 169.116-70.137h.064c45.424 6.88 86.34 31.687 120.427 55.061 254.937 178.739 688.124 837.659 696.274 1265.887 101.9 54.831 404.23 227.393 525.007 443.035zM3023.293 395.377c-5.778-.882-8.577.882-10.158 2.404-16.519 16.227-20.898 56.724-11.945 111.158 34.515 210.694 239.468 555.281 619.043 817.903-146.223-399.099-501.946-916.364-596.94-931.465zm-94.528 1588.403c-11.608 18.823-28.671 28.08-46.784 25.357-10.34-1.534-30.058-8.657-46.448-39.909-113.586-272.634-334.099-583.527-525.927-623.704a125.141 125.141 0 00-8.927-1.765c-31.392-5.217-54.195 1.036-69.846 19.22-40.643 47.286-28.776 170.618 33.997 338.13 47.549 124.865 124.573 277.262 200.055 424.404 52.524 102.322 102.534 198.865 138.06 277.225 95.318 208.66 65.39 386.362-12.554 447.344-17.115 14.22-33.907 19.82-51.514 17.084-24.267-3.76-47.212-22.71-74.64-61.75-149.41-221.421-422.213-745.693-515.342-1060.947-64.25-215.693-50.878-384.994 35.046-476.883 62.371-66.672 162.457-90.226 290.075-68.846 245.75 41.418 510.146 260.372 631.338 523.083 52.122 114.19 60.233 202.305 23.411 261.957zm-696.52 1445.712c-99.878 216.576-268.075 298.221-526.29 254.067a1039.676 1039.676 0 01-36.77-6.969c-156.82-33.208-317.644-108.421-486.825-189.083-149.863-71.429-268.943-157.153-435.506-193.52-63.9-13.95-106.5 17.263-122.5 46.737-30.292 55.841-93.207 33.477-103.856-30.65-32.831-197.933 172.29-285.243 385.392-254.094-348.027-624.894-670.129-1436.824-741.918-1814.748-45.539-245.64 18.643-349.996 80.068-394.713 18.061-12.109 32.818-16.406 46.357-13.452 27.143 5.92 36.796 38.042 39.866 48.374 115.646 361.3 217.067 640.443 315.43 876.979 56.475-15.78 120.97-17.096 187.643-3.747 25.484 5.115 51.384 12.404 77.01 21.713 512.777 195.681 990.534 560.677 1217.421 940.94 160.863 270.588 198.345 509.925 104.478 712.166zM1961.1 2993.4c-156.186-301.098-551.658-700.53-1192.623-950.032 68.953 152.09 136.247 287.992 202.064 419.495 36.2 72.247 71.686 142.627 106.24 212.611 98.155 192.344 144.486 344.46 139.148 465.03 57.875 26.469 120.388 58.41 186.478 91.9 152.946 77.618 312.229 156.924 435.208 177.703 91.587 15.498 150.058-4.335 178.704-60.368 41.356-79.996 20.639-209.824-55.22-356.339"
          ></path>
          <path
            fill="#d29b67"
            d="M4540.271 2268.87c17.22-32.173 22.622-25.652 7.645-14.003 28.866 2.008 57.227 10.805 83.035 25.907 41.032 24.219 127.721 91.466 245.726 183.828 56.048 43.86 109 85.277 134.886 103.729 29.1 20.996 41.628 58.68 30.447 92.502-6.958 20.932-22.596 37.85-42.056 47.683 182.292 133.344 363.782 226.409 476.137 252.61 6.335 14.347 11.647 28.08 14.705 40.356 3.097 12.25 3.705 20.357 3.576 25.305a98.714 98.714 0 01-7.722.282c-4.237 0-8.72-.205-13.448-.601-104.97-8.836-310.882-108.5-517.532-259.668 19.46-9.846 35.098-26.764 42.056-47.684 11.18-33.834-1.348-71.505-30.447-92.514-25.887-18.44-78.838-59.857-134.886-103.73-118.005-92.348-204.694-159.596-245.726-183.827-25.808-15.102-54.17-23.9-83.035-25.907 14.977-11.649 27.557-26.635 36.64-44.269zm-746.57-366.838c206.08 170.12 361.554 334.013 445.781 472.344a963.739 963.739 0 0157.59 110.992c-8.395 70.176 12.97 155.926 57.759 244.451 1.114 106.58-32.948 202.983-102.574 284.053-2.384 2.814-4.91 5.166-7.333 7.916 101.576-159.034 85.2-365.687-49.725-589.141-87.726-144.06-252.074-315.753-471.059-493.417 25.213-9.808 48.288-22.518 69.562-37.198zm3274.397 68.002c16.895 1.598 36.264 7.877 57.292 17.595 12.516 41.213 35.176 96.799 75.599 169.135 65.895 116.453 169.777 261.766 270.55 400.672l22.387 30.894c72.567 100.11 141.157 194.633 189.03 270.908 149.047 240.602 125.402 450.094 37.884 548.593-3.99 4.859-8.629 8.657-13.008 12.915 59.365-109.803 59.986-294.769-69.16-503.225-47.873-76.288-116.462-170.81-189.03-270.92l-22.388-30.894c-100.772-138.907-204.654-284.207-270.55-400.672-76.155-136.26-90.407-214.708-89.383-245.078.453.037.738.077.738.077zm-810.482-2.43c17.361 99.894 80.082 273.082 227.859 480.566 208.218 291.879 433.628 482.33 568.566 559.667 15.897 41.174 23.917 71.442 26.961 91.9-112.057-36.187-388.67-241.228-639.81-593.283-197.53-277.315-243.11-493.43-231.514-555.064 13.073 2.302 29.1 7.43 47.938 16.215zm-830.162-15.408c-4.613 5.588-9.691 10.754-14.654 16.035 3.783-6.176 7.748-12.186 11.194-18.644 1.166.832 2.307 1.765 3.46 2.609zm-106.331 116.567c214.41 163.292 377.489 322.108 467.495 457.78 159.632 242.315 172.821 469.53 37.52 639.176-5.467 6.982-11.284 13.03-16.92 19.552 104.906-164.762 82.932-376.082-64.884-600.458-93.413-140.799-264.94-306.456-491.49-476.269 24.889-10.741 47.497-24.257 68.279-39.78zm-2425.85-435.49c-146.935-245.168-399.293-435.018-643.425-476.155-34.995-5.869-68.875-8.835-100.734-8.835-107.626 0-197.257 34.256-260.107 98.665 11.635-19.424 25.005-57.273 40.164-73.488 63.019-67.375 154.087-83.448 264.227-83.448 31.872 0 65.726 2.966 100.734 8.823 232.354 39.154 471.952 213.135 621.219 441.181-11.298 31.137-19.33 62.299-22.077 93.257zm1531.58 108.805c-9.393 30.267-14.99 60.394-16.505 90.175-125.247-156.719-318.863-282.98-452.985-358.615-37.158-449.403-462.494-1096.496-728.858-1283.251-42.652-29.245-93.906-59.895-156.095-69.294-12.451-1.892-24.669-2.813-36.796-2.813-72.204 0-141.027 32.543-204.564 96.696-16.454 16.649-35.435 35.855-54.623 58.08 32.287-48.566 69.562-86.672 98.907-116.35 63.537-64.167 132.36-96.71 204.564-96.71 12.14 0 24.345.934 36.796 2.813 62.189 9.399 113.443 40.062 156.095 69.294 266.364 186.769 691.7 833.848 728.858 1283.251 124.794 70.38 300.4 184.953 425.207 326.724zm1041.879-107.68c-54.7-448.074-506.26-1079.655-780.631-1256.77-43.922-27.684-96.472-56.48-159.114-63.628a252.996 252.996 0 00-28.076-1.573c-75.586 0-146.21 35.037-209.993 104.202-12.01 13.069-25.484 27.85-39.296 44.128 27.869-41.57 58.705-75.367 83.58-102.399 63.783-69.178 134.407-104.202 209.993-104.202 9.315 0 18.67.524 28.076 1.56 62.643 7.16 115.192 35.957 159.114 63.641 274.371 177.115 725.93 808.684 780.63 1256.77 79.305 40.676 190.365 103.742 295.918 184.058-15.12 18.746-29.138 38.642-40.747 60.892-106.602-81.582-219.269-145.543-299.454-186.68zm2435.113 801.394c-9.718 24.078-24.993 43.655-44.155 57.798 25.394-63.245 13.526-189.518-70.339-329.486-143.566-234.682-454.37-485.04-726.746-498.813-8.15-.396-16.04-.652-23.814-.652-143.23.128-257.178 42.364-331.365 117.693 67.942-111.146 199.174-175.81 375.65-175.964 7.773 0 15.663.243 23.813.64 272.376 13.784 583.18 264.13 726.746 498.812 84.047 140.288 95.81 266.868 70.21 329.972zm-5696.113 221.115c176.682 297.185 213.154 562.352 108.43 787.84-26.82 58.182-58.795 108.051-95.5 150.134 18.644-28.08 35.837-58.501 51.216-91.863 104.724-225.475 68.253-490.655-108.43-787.84-232.627-389.828-726.863-772.905-1259.294-976.054-30.616-11.163-60.648-19.602-90.486-25.587-35.655-7.148-71.349-10.805-105.955-10.805h-.038c-15.703 0-31.212.767-46.435 2.25-93.128-229.707-185.285-488.851-287.69-808.861-22.751-75.994-73.345-97.81-101.434-103.921-8.46-1.854-17.374-2.814-26.288-2.814-28.373 0-56.086 9.322-84.784 28.529-11.855 8.618-23.702 18.835-35.225 30.51 23.163-39.666 51.368-68.335 79.509-88.794 28.697-19.194 56.41-28.515 84.784-28.515 8.914 0 17.828.959 26.288 2.813 28.09 6.1 78.683 27.914 101.434 103.92 102.418 320.011 194.562 579.155 287.69 808.85a479.07 479.07 0 0146.435-2.238h.038c34.606 0 70.3 3.657 105.955 10.792 29.825 5.985 59.87 14.424 90.486 25.6 532.43 203.136 1026.667 586.226 1259.294 976.054zm3944.357-1030.63c-13.229-.92-26.172-1.393-38.882-1.393-117.822 0-215.77 39.87-284.956 112.08 67.993-108.423 183.03-170.364 329.253-170.364 12.697 0 25.64.486 38.869 1.407 187.772 13.516 358.288 122.002 490.388 239.03-15.379 19.103-29.345 39.32-40.138 61.8-132.657-118.383-304.857-228.903-494.534-242.56zM2255.916 1465.48h.168c14.887 3.12 30.758 9.411 47.135 17.697 6.335 40.83 20.108 96.505 47.704 170.197 45.333 119.06 118.769 264.808 196.389 416.182l13.552 26.342c47.782 93.077 92.96 181.027 126.127 254.208 77.75 170.17 81.132 323.59 42.911 429.557 18.113-3.938 36.757-5.946 55.724-5.946 13.138 0 26.457.96 39.516 2.929 58.899 8.72 111.695 36.801 148.685 79.1 77.088 88.347 120.608 245.73 34.644 381.198-11.673 19.142-25.562 36.38-40.747 52.082 80.833-134.048 37.754-288.005-38.181-374.996-36.99-42.3-89.786-70.38-148.685-79.1-13.06-1.97-26.378-2.942-39.516-2.942-18.968 0-37.611 2.02-55.724 5.946 38.22-105.967 34.84-259.374-42.91-429.545-33.168-73.193-78.346-161.13-126.128-254.208l-13.565-26.354c-77.607-151.361-151.043-297.109-196.376-416.182-52.796-140.953-55.685-217.407-50.723-246.165zm1232.41 1094.117c165.385 125.749 323.281 210.86 424.274 237.815 5.96 14.948 10.883 29.206 13.5 41.852 2.618 12.416 2.903 20.613 2.579 25.549-1.063.038-2.203.09-3.473.09-5.364 0-11.103-.448-17.296-1.164-98.168-11.905-284.14-106.504-478.378-256.625 25.692-5.933 47.302-23.604 58.794-47.516zM1053.28 2407.558l19.576 38.963c29.514 58.859 58.497 116.618 86.417 173.137 91.263 178.802 139.81 326.686 147.428 449.8 40.747 19.692 83.113 41.187 127.229 63.565l14.692 7.416c131.958 66.966 296.241 150.364 411.15 169.775 15.339 2.608 29.215 3.926 41.303 3.926 5.87 0 10.767-.346 15.25-.857-1.814 15.6-5.377 28.656-10.495 38.49-4.301 8.477-10.533 20.65-49.039 20.65-12.088 0-25.964-1.33-41.304-3.938-114.908-19.398-279.191-102.796-411.149-169.762l-14.692-7.43c-44.116-22.377-86.495-43.872-127.23-63.551-7.617-123.128-56.164-270.998-147.427-449.8-27.92-56.52-56.903-114.291-86.417-173.138l-19.576-38.975c-35.073-70.176-71.557-143.369-108.884-220.782 32.987 15.728 65.053 31.852 96.394 48.31 19.24 38.975 38.22 77.08 56.774 114.201zm-349.22 555.345c8.15 15.587 16.248 31.469 24.41 46.852-104.711 10.102-193.797 48.13-252.709 107.655 8.694-15.537 18.774-30.447 30.77-44.372 45.982-53.424 115.09-91.12 197.53-110.135"
          ></path>
          <path
            fill="#fff"
            d="M2744.244 2995.075c39.27 5.831 73.993 24.091 97.884 51.443 57.603 65.969 90.978 183.303 26.378 285.089-42.327 69.408-120.025 108.805-192.955 97.95-35.5-5.282-66.71-22.2-90.304-48.873-65.804-74.588-97.534-204.198-14.213-312.582 41.602-55.713 106.24-83 173.21-73.027zm5013.624-452.625c-11.13 27.569-30.42 31.11-40.967 30.778-18.916-.626-38.246-13.759-54.7-37.364-175.258-270.09-438.28-552.634-610.389-568.937-3.057-.32-6.037-.55-8.914-.69-33.128-1.689-55.75 7.429-69.094 27.888-34.813 53.182-3.265 180.35 85.899 339.805 67.812 119.892 172.73 266.803 275.485 408.433 80.548 111.133 157.223 215.809 208.127 296.866 125.83 203.047 111.863 377.693 44.193 453.879-14.044 17.135-30.77 25.46-49.712 24.769-25.977-.96-53.276-18.644-83.373-54.103-42.366-50.227-90.9-115.16-154.333-207.266.713 72.017-22.038 133.152-66.024 175.299-46.836 44.883-116.67 66.505-201.649 62.4-104.05-5.204-494.962-70.61-992.334-710.912-116.683-150.747-198.565-309.333-238.159-458.137-129.457-182.536-282.236-327.938-443.85-422.256-17.465 75.009-52.99 134.009-105.761 175.311-56.838 45.075-137.516 65.918-233.987 60.509 290.45 197.868 521.004 402.666 631.895 569.717 137.93 209.39 154.294 402.552 41.447 544.015-80.678 102.962-178.95 141.707-327.362 128.83-36.083-3.145-76.26-9.334-122.76-19-222.598-44.45-482.938-185.35-661.201-358.053-161.213-155.76-238.95-332.414-224.53-433.944 10.145-71.416 93.168-123.165 163.792-81.85 64.417 38.08 304.559 233.787 374.237 283.388 10.002 7.212-162.457-27.684-240.893-50.19 273.296 258.44 617.708 451.22 788.871 465.567 43.351 3.708 73.811-3.709 90.511-21.917 21.624-23.618 26.729-58.834 15.159-104.701-43.882-175.951-333.062-493.558-860.816-822.008-185.506-115.416-255.029-261.458-198.993-410.044 10.04-24.475 29.773-26.124 40.656-24.91 15.08 1.65 32.248 10 52.472 25.383 148.14 110.813 304.87 160.478 401.42 169.966 59.558 5.87 103.92-2.468 121.683-22.467 31.548-37.082 37.702-99.138 18.8-184.441-301.826-141.86-714.854-381.26-887.248-774.465-109.233-249.95 13.241-380.238 92.882-466.806 53.496-58.016 107.938-82.963 166.901-76.237 45.916 5.23 87.881 28.579 122.98 50.714 262.62 169.557 722.665 812.8 747.372 1240.708 84.176 40.932 272.39 139.815 417.718 274.91 32.326-172.945 156.898-266.752 338.452-253.709 228.676 16.457 432.67 198.738 548.316 323.4 2.111-179.864 128.485-284.706 344.464-284.847 6.426 0 12.93.18 19.486.5 0 0-.012.012.038 0 242.693 12.326 529.917 247.072 659.27 458.584 73.216 122.142 78.657 222.815 64.522 257.635zM4431.375 709.646c-5.856-.678-8.576 1.176-10.105 2.775-15.923 16.815-18.787 57.465-7.67 111.58 42.794 209.44 261.674 546.624 652.547 795.538-162.12-393.805-538.858-898.218-634.772-909.893zm1747.403 1236.86h-.026c-29.268-1.369-49.816 9.36-62.837 32.773-48.922 88.167 22.077 357.374 232.873 653.333 265.523 372.245 596.059 627.655 732.11 633.87 2.994.14 5.78.153 8.383.038 21.015-.934 35.19-9.296 43.559-25.562 34.048-65.687-29.747-272.953-297.291-661.823-278.608-402.167-500.598-621.684-656.77-632.63zm-1801.507 98.665c62.772 111.951 84.668 229.49 64.767 264.604-9.678 19.385-28.296 29.538-49.764 27.147-21.61-2.417-41.939-17.058-52.861-37.926-134.562-244.784-306.84-437.767-499.911-560.396-20.302 74.293-57.914 131.912-112.058 171.284-58.315 42.939-139.446 60.853-235.308 51.992 281.6 208.046 503.228 420.862 607.213 591.673 129.263 214.107 138.151 407.577 20.329 544.77-84.28 99.918-183.653 135.083-330.912 116.874-35.785-4.437-75.6-12.071-121.503-23.375-219.917-52.414-479.738-197.382-644.657-381.35-386.998-431.68-99.412-573.298 15.094-499.337 69.873 45.125 287.38 233.978 350.592 287.428 3.2 2.737.519 8.21-3.588 7.212-79.473-19.462-160.293-34.73-238.6-60.1-1.347-.434-32.96-7.863 4.69 29.386 254.47 245.947 562.32 429.724 722.627 449.122 43.027 5.268 73.655-1.036 90.978-18.644 22.427-22.812 28.866-57.772 19.11-104.01-36.925-177.294-312.618-504.861-825.472-851.84-180.233-121.925-243.86-270.281-182.319-416.643 10.91-24.09 30.628-24.986 41.447-23.413 14.951 2.187 31.716 11.15 51.267 27.237 143.243 115.979 297.382 171.194 393.153 184.147 59.067 8.005 103.61 1.279 122.02-18.055 32.831-35.907 41.408-97.643 25.822-183.521-295.062-152.512-697.064-406.452-853.548-805.269-99.153-253.53 27.869-379.24 110.503-462.843 55.504-56.007 110.684-78.96 169.129-70.137h.052c45.424 6.88 86.34 31.686 120.427 55.061 254.937 178.739 688.124 837.659 696.287 1265.887 101.9 54.831 404.217 227.393 524.994 443.035zM2962.84 513.658c-5.791-.882-8.577.882-10.17 2.404-16.52 16.227-20.899 56.723-11.946 111.158 34.515 210.694 239.48 555.281 619.042 817.903-146.21-399.099-501.945-916.364-596.926-931.465zM2868.3 2102.06c-11.597 18.823-28.66 28.08-46.785 25.357-10.326-1.535-30.046-8.657-46.448-39.909-113.586-272.634-334.1-583.527-525.927-623.704a123.623 123.623 0 00-8.927-1.765c-31.392-5.217-54.182 1.036-69.846 19.22-40.63 47.286-28.776 170.618 34.01 338.129 47.548 124.866 124.56 277.263 200.042 424.404 52.524 102.323 102.534 198.866 138.06 277.225 95.318 208.66 65.39 386.363-12.555 447.345-17.115 14.22-33.906 19.82-51.5 17.084-24.28-3.76-47.225-22.71-74.653-61.75-149.41-221.421-422.214-745.693-515.342-1060.947-64.236-215.693-50.879-384.994 35.046-476.883 62.384-66.672 162.457-90.226 290.087-68.846 245.752 41.418 510.134 260.372 631.325 523.083 52.123 114.19 60.233 202.305 23.412 261.957zm-696.521 1445.712c-99.879 216.576-268.075 298.221-526.29 254.067a1045.589 1045.589 0 01-36.77-6.969c-156.807-33.208-317.631-108.422-486.825-189.083-149.85-71.429-268.943-157.153-435.506-193.52-63.9-13.95-106.5 17.262-122.487 46.737-30.305 55.841-93.22 33.477-103.857-30.65-32.843-197.933 172.29-285.243 385.38-254.094-348.014-624.894-670.129-1436.825-741.915-1814.748-45.54-245.64 18.64-349.996 80.065-394.726 18.074-12.096 32.83-16.393 46.357-13.439 27.143 5.92 36.795 38.042 39.866 48.374 115.646 361.3 217.067 640.443 315.43 876.979 56.475-15.78 120.97-17.096 187.643-3.747 25.497 5.115 51.384 12.404 77.01 21.713 512.79 195.681 990.547 560.677 1217.421 940.94 160.863 270.588 198.358 509.925 104.478 712.166zm-271.145-436.092c-156.186-301.098-551.658-700.53-1192.623-950.032 68.953 152.09 136.26 287.992 202.077 419.494 36.186 72.248 71.673 142.628 106.227 212.612 98.155 192.344 144.486 344.46 139.148 465.03 57.875 26.468 120.388 58.41 186.477 91.9 152.947 77.618 312.23 156.924 435.209 177.703 91.6 15.498 150.058-4.335 178.703-60.368 41.37-79.997 20.64-209.824-55.218-356.339"
          ></path>
          <path
            fill="#f24140"
            d="M4227.485 5689.373c13.98 33.054 22.324 69.996 10.56 101.056.518 1.1.751 1.688 1.27 2.878 66.153 22.837 155.524 57.58 217.74 135.287 11.543 14.398 35.201 16.01 49.038 3.376.596-.588 1.192-1.112 1.788-1.688 16.221-16.227-.738-58.322 6.776-72.196 7.515-13.964 99.27-19.027 107.536-36.878 8.564-18.58 7.735-30.331 4.69-37.313-2.306-5.28-82.608-118.984-329.305-178.035-40.112-9.616-57.383-10.792-85.057-12.48-.816-.077-1.568-.588-1.775-1.33-40.19-118.754 137.062-213.213 135.43-209.977-24.41 49.575-101.576 135.876-75.975 131.54 24.772 2.571 66.154-11.891 82.453-24.972 91.677-73.373 134.174-167.678 187.902-189.122 53.73-21.38-100.837-46.57-247.37 2.788-181.943 61.403-230.84 169.66-248.395 229.592-.376 1.1.363 2.136 1.555 2.276 41.667 5.946 79.706 26.444 104.102 68.974.674 1.1 1.866 9.987.674 9.181-65.856-45.24-160.293-41.494-226.37-1.547-9.522 5.729-17.036-2.647-11.31-11.969 25.005-41.43 63.394-62.503 103.222-65.585 1.334-.153 2.15-1.394 1.632-2.57-31.108-69.639-110.658-205.873-296.785-267.788-204.189-68.015-324.9-30.638-271.172-9.258 53.73 21.444 133.953 172.601 263.216 238.11 30.59 15.497 45.32 13.144 61.982 22.108 25.68 4.335-51.487-81.965-75.974-131.54-1.568-3.236 149.202 92.54 157.844 209.03.064 1.1-.83 1.982-1.866 2.059-27.311 1.765-44.284 4.335-84.396 12.48-255.688 51.711-327.05 172.754-329.37 178.035-3.044 6.982-3.86 18.733 4.768 37.313 8.266 17.85 99.943 22.914 107.458 36.878 7.515 13.874-9.445 55.97 6.84 72.196.532.576 1.128 1.1 1.724 1.688 13.915 12.634 37.495 11.022 49.039-3.376 62.28-77.784 151.742-112.526 217.818-135.364 1.334-2.724 2.008-4.194 3.342-6.829-9.665-30.267-1.476-65.444 11.92-97.028a1.87 1.87 0 00-2.099-2.57c-13.837 3.005-27.752 5.357-41.744 8.593-34.891 8.081-68.758 19.167-101.654 33.348-1.257.512-3.045-1.112-1.71-2.212 48.598-37.965 116.164-86.658 181.282-84.165 14.588.589-14.135 127.871 62.06 124.93 19.434-.728 40.41-.728 63.109-1.393 17.866-.435 47.108-.294 64.975.14 21.053.525 40.695.819 58.937 1.253 74.109 1.688 50.97-124.341 65.636-124.93 65.039-2.493 132.605 46.2 181.203 84.165 1.335 1.1-.375 2.724-1.71 2.212a593.469 593.469 0 00-101.653-33.348c-13.928-3.236-27.908-5.588-41.68-8.593-1.555-.295-2.747 1.176-2.15 2.57"
          ></path>
          <path
            fill="#ffcfa0"
            d="M4096.875 3517.48c20.237-13.004 16.376-39.665-3.719-52.81-227.574-148.728-693.125-294.155-1140.746-246.498-291.94 31.073-428.121 162.908-429.469 163.867-6.918 4.923-15.327 7.34-23.878 6.905-61.917-3.376-177.641-25.42-216.12 29.82-3.188 4.629-6.466 11.01-9.744 18.72-32.817 78.155 33.414 193.393 91.613 255.448 119.209 127.36 299.455 259.566 535.8 287.698 600.93 71.608 1196.12-463.086 1196.263-463.15"
          ></path>
          <path
            fill="#ffcfa0"
            d="M5255.928 4454.354c2.384-12.186 5.726-39.947 2.54-56.915-9.238-49.576-49.869-100.763-117.733-148.945-38.778 11.228-87.816 22.11-122.94 30.472l238.133 175.388"
          ></path>
          <path
            fill="#ffcfa0"
            d="M5234.874 4629.384c7.813-21.878 13.241-79.536-3.874-115.237-.298-.652-.44-1.317-.751-2.059 0 0-281.666-215.054-283.156-216.588-28.646 5.511-68.68 12.928-90.939 16.073 52.99 56.711 113.496 169.008 286.37 254.58 27.751 13.733 58.859 41.2 92.35 63.231"
          ></path>
          <path
            fill="#ffcfa0"
            d="M5056.274 4711.427c27.234-19.616 34.67-90.559 9.6-119.496-63.782-43.489-120.79-93.065-166.926-137.717-74.2-71.826-120.336-131.17-121.152-133.012-19.5-1.47-72.71-14.833-93.621-19.833 0 0 89.825 163.279 127.708 205.656 29.32 32.76 111.034 90.558 172.42 132.129 41.978 28.272 71.971 72.273 71.971 72.273"
          ></path>
          <path
            fill="#ffcfa0"
            d="M5793.01 3607.297c15.547-62.58 32.209-144.469 2.449-181.194-68.162-84.024-169.22-76.594-173.016-77.119-6.854-.805-13.552-3.67-18.903-7.85-40.786-31.815-157.766-121.85-402.896-118.256-346.122 5.217-677.06 188.022-955.15 366.21-257.49 165.03-659.414 422.461-1093.65 469.99 84.836 42.454 224.373 116.926 386.895 123.537 15.923.217 401.561-.23 632.18-14.616 324.097-20.28 415.256 71.532 599.44 67.862 342.39-6.829 560.066-145.428 615.803-176.283 106.046-58.745 339.865-183.023 406.848-452.28"
          ></path>
          <path
            fill="#ffcfa0"
            d="M3455.703 6844.254c-.454 2.711-15.262 66.608-18.98 64.844l-102.924-47.811c-1.775-.87-1.335-3.517.674-3.593l45.463-2.788c4.094-.294 5.882-5.076 2.824-7.71l-76.117-65.304c-3.731-3.223-.155-8.951 4.612-7.494l105.968 33.35c2.825.882 5.805-.947 6.103-3.747l3.42-29.667c-.959-.23-1.93-.37-2.824-.588-25.148-6.688-41.162-21.009-51.345-37.824-11.544-19.104-15.639-41.507-17.647-59.933-3.64-34.743 47.407-206.32 71.816-239.733 4.91-6.829 23.14-27.032 38.544 21.303.22.652 0 1.394-.44 1.905-66.607 68.232-.142 99.369-2.228 138.37-2.164 39.819-54.558 102.974-69.665 124.278-1.18 1.611-.96 3.452 0 4.846.971 1.394 2.902 2.276 4.988 1.841l71.893-21.674c3.2-.729 6.18 1.842 5.727 4.923l-19.862 132.206"
          ></path>
          <path
            fill="#ffcfa0"
            d="M4750.86 6781.892l-76.13 65.303c-3.045 2.635-1.27 7.417 2.902 7.711l45.398 2.788c2.008.077 2.527 2.723.739 3.593l-102.988 47.81c-3.719 1.766-18.527-62.132-18.98-64.843l-19.798-132.206c-.44-3.081 2.462-5.652 5.662-4.923l74.122 28.35c.363.076.738.153 1.101.153 3.589 0 6.038-3.824 3.874-6.828-15.107-21.304-69.652-91.147-71.803-130.966-2.163-39.001 64.288-70.137-2.241-138.37a1.811 1.811 0 01-.44-1.905c15.326-48.335 33.556-28.132 38.544-21.303 24.344 33.413 75.456 204.99 71.738 239.733-2.307 21.738-7.658 48.834-24.487 69.702-10.041 12.48-24.254 22.685-44.492 28.055-.894.218-1.865.358-2.824.588l3.42 29.667c.376 2.8 3.343 4.629 6.168 3.746l105.903-33.349c4.755-1.457 8.408 4.271 4.612 7.494"
          ></path>
          <path
            fill="#ffcfa0"
            d="M4278.014 6794.602c-53.884 3.082-91.094-31.29-108.287-51.775-2.967-3.606-9.005-.882-8.175 3.67 20.095 116.478 91.755 137.487 150.757 107.667 34.32-17.262 86.184-59.421 114.091-82.911 3.861-3.312 9.743.946 7.295 5.357-21.508 38.554-66.828 116.12-92.43 134.112-53.132 37.453-86.093 24.68-114.972 20.127-101.874-15.87-120.038-180.311-121.606-196.257.156-.806.234-1.611.376-2.417 32.3-84.906 22.18-159.903 12.127-200.003-1.71-6.892 7.45-10.933 11.686-5.205 32.3 43.477 48.741 92.093 46.59 128.013.363-.218.519-.666.894-.883 42.561-23.797 87.441-35.1 135.949-37.53 3.796-.14 4.845 5.14 1.192 6.317-24.63 7.416-48.223 17.48-70.844 29.231-5.804 3.082-3.719 11.828 2.915 11.969 65.182 1.7 166.538 9.181 195.261 11.316 2.009.141 2.462 2.942.519 3.67-37.353 14.181-107.523 20.421-126.802 22.544-3.498.37-4.016 3.606-3.057 6.905 4.845 15.869 76.428 8.887 110.89 7.135 1.335-.077-12.502 9.245-19.2 12.621 0 .077-.077.077-.155.154-13.915 9.552-27.895 19.09-42.043 28.272 0 .077-.077.077-.077.077-22.168 17.697-52.161 36.06-82.893 37.824zm-381.544-48.105c.738-4.552-5.209-7.276-8.266-3.67-17.18 20.485-54.312 54.857-108.275 51.775-1.554-.077-3.2-.37-4.754-.511-1.71.511-3.654.511-5.882-.295a97.73 97.73 0 00-2.98-1.1c-20.614-4.334-40.488-14.986-57.227-26.89-18.968-10.793-37.055-23.132-54.17-36.648-.142-.063-.22-.141-.376-.218-8.94-4.181-17.866-8.81-26.715-13.81-1.49-.805 61.023 7.94 91.237 4.335 13.992-1.688 25.225-7.787 27.389-10.946 1.93-2.864.518-6.534-3.058-6.905-19.2-2.046-84.46-11.969-121.295-26.584-1.943-.73-1.49-3.517.583-3.593 28.504-1.407 125.26-5.883 189.704-7.353 6.62-.14 8.706-8.887 2.902-11.969-22.635-11.751-46.15-21.815-70.78-29.231-3.64-1.1-2.604-6.458 1.192-6.317 46.435 2.353 89.67 12.774 130.598 34.602 2.682 1.458 6.038.205 6.711-2.583 4.755-18.797 21.417-81.518 50.75-125.736 2.902-4.335 9.963-1.61 8.55 3.376-6.918 25.42-14.951 68.45-9.6 120.749.83 8.516 2.086 17.262 3.731 26.29 1.555 8.516 3.499 17.34 5.947 26.226 2.825 10.729 6.323 21.598 10.572 32.684.065.806.22 1.611.298 2.417-1.49 15.946-19.719 180.388-121.606 196.257-28.866 4.552-61.761 17.326-114.972-20.127-25.524-17.992-70.844-95.558-92.351-134.112-2.462-4.411 3.342-8.669 7.216-5.357 27.908 23.49 79.849 65.649 114.079 82.911 59.093 29.82 130.675 8.81 150.848-107.667zm130.455-321.481v-.063c-.077 0-.22.063-.298.063h-.363c-14.226 1.33-41.758 6.1-69.665 24.244-40.034 26.073-63.031-3.452-82.375 10.422-6.633 4.77-9.976 10.14-11.323 15.651a2.02 2.02 0 000 .883c1.943 12.109 7.747 23.131 17.723 31.801 11.61 10.127 3.498 27.978-12.282 26.584-50.153-4.475-99.127-26.072-143.71-49.358-6.4-3.299-3.86-12.928 3.357-12.633 70.325 2.94 95.991-29.232 103.299-41.865 1.476-2.494.142-5.73-2.76-6.535-78.203-23.285-142.802 2.2-162.457 11.534-2.98 1.394-6.62-.23-6.996-3.376-8.408-86.16 56.268-270.729 145.562-352.553 4.016-3.67 10.274 1.112 7.294 5.51-25.886 38.413-68.913 117.144-82.595 232.752-.453 3.67 3.796 6.317 7.139 4.412 8.55-4.847 20.393-9.77 30.59-11.534 2.007-.294 3.718-1.47 4.612-3.312 40.772-82.618 150.537-125.953 254.95-125.953.738 0 1.49.077 2.228.077v.063h.077v-.063h.154v.063h.065v-.063c.752 0 1.49-.077 2.242-.077 104.4 0 214.177 43.335 254.872 125.953.894 1.841 2.604 3.018 4.626 3.312 10.26 1.764 22.025 6.687 30.576 11.534 3.42 1.905 7.592-.742 7.217-4.412-12.205-103.039-47.705-176.782-73.669-218.8-4.094-6.611 4.988-13.286 10.34-7.71 83.048 86.67 141.544 258.606 133.512 340.801-.298 3.146-3.952 4.77-6.919 3.376-19.654-9.334-84.318-34.82-162.534-11.534-2.825.806-4.172 4.041-2.747 6.535 7.36 12.633 33.038 44.806 103.364 41.865 7.139-.295 9.665 9.334 3.343 12.633-44.647 23.286-93.621 44.883-143.697 49.358-15.78 1.394-23.968-16.457-12.282-26.584 9.976-8.67 15.703-19.692 17.633-31.802a1.713 1.713 0 000-.882c-1.334-5.511-4.69-10.882-11.31-15.651-19.344-13.874-42.34 15.651-82.31-10.422-27.895-18.145-55.44-22.914-69.717-24.244h-.298c-.156 0-.298-.063-.376-.063v.063c-.596.077-1.334.153-2.008.217-.739-.063-1.412-.14-2.086-.217zm2.086-583.758c-.674 0-1.413-.063-2.086-.063v-.077h-.661v.077c-59.326 1.1-123.99 21.879-152.04 37.965-96.899 55.74-203.903 217.918-241.048 301.725-2.67 5.946-12.127 3.235-10.935-3.094 9.536-49.282 26.055-99.74 50.606-145.786.96-1.906-1.334-3.747-2.902-2.353-18.087 15.715-36.316 34.154-53.288 55.598-51.643 65.585-97.482 186.782-101.2 291.956-5.662 160.708 14.51 468.597 14.51 468.597s3.343 42.888 4.755 43.617c33.194 16.75 54.26 28.208 110.956 41.941 94.593 67.938 170.282 74.038 230.697 40.395 53.962 5.511 79.706 5.14 149.889 5.294v.077c.142 0 .207-.077.363-.077.077 0 .22.077.298.077v-.077H4031.019v.077c.142 0 .22-.077.376-.077.077 0 .22.077.297.077v-.077c48.366-.077 92.494-1.688 132.982-4.565 133.72 64.78 238.509-37.812 245.57-39.794 49.635-14.257 86.184-29.756 112.977-43.271 1.477-.73 2.306-2.123 2.384-3.747l2.449-39.87s20.095-307.889 14.433-468.597c-3.64-105.174-49.48-226.37-101.2-291.956-16.973-21.444-35.124-39.883-53.289-55.598-1.554-1.394-3.873.447-2.902 2.276 21.585 40.471 36.99 84.318 46.81 127.73 2.009 8.887-10.714 12.992-14.432 4.693-37.068-83.512-93.025-201.614-233.755-285.19-27.609-16.381-92.649-36.866-152.026-37.966v-.077H4031.019v.077c-.674 0-1.335.063-2.008.063zm71.738 248.914c48.598 21.01 81.779 65.586 78.138 64.268-19.059-6.534-62.06-20.715-82.31-24.167-.44-.063-.894.077-1.257-.063a7.68 7.68 0 00-1.127-.371c-72.632-11.828-150.473-3.53-214.916 28.707-.739.37-1.335-.435-.816-1.023 22.543-27.25 47.782-55.598 78.67-68.079 9.807-4.04 17.697-11.24 23.812-19.538 14.952-20.639 32.287-36.942 48.21-36.942 17.27 0 35.422 18.503 50.905 40.982 4.988 7.264 12.36 12.621 20.69 16.227"
          ></path>
          <path
            fill="#d39a72"
            d="M3724.633 6485.243s-29.968-15.984-44.854-30.676c-9.043-8.926-14.705-15.166-17.776-18.72 1.257.473 2.72.524 4.068-.103 19.655-9.335 84.254-34.82 162.457-11.534 2.902.805 4.236 4.04 2.76 6.534-7.308 12.634-32.974 44.806-103.3 41.865-7.216-.294-9.755 9.335-3.355 12.634zm711.355 189.8l.375-.014-.155.026c-.077 0-.142-.012-.22-.012zm-338.232 253.261c33.206 28.247 66.88 44.18 66.88 44.18l-.092.012c-40.449 2.864-84.539 4.475-132.852 4.552v.077c-.077 0-.22-.077-.298-.077-.155 0-.233.077-.376.077v-.077h-4.094v.077c-.077 0-.22-.077-.298-.077-.155 0-.22.077-.362.077v-.077c-46.733-.103-73.772.012-102.548-1.509-15.392-.933-30.848-2.123-46.175-3.67-.39-.037-.765-.077-1.167-.115h-.039s38.661-14.206 75.068-48.348c24.811-23.26 110.386-25.702 146.352 4.897zm-428.536-302.44c3.783.408 6.465.69 7.462.69 2.643 0-.44.741-7.462-.69zm660.813-153.254c-70.326 2.94-96.005-29.232-103.364-41.865-1.425-2.494-.077-5.73 2.747-6.535 78.216-23.285 142.88 2.2 162.534 11.534 1.218.576 2.513.524 3.692.192-3.096 3.555-8.719 9.77-17.71 18.63-13.28 13.108-38.493 27.2-43.805 30.115 5.234-3.696 2.708-12.353-4.094-12.071zm212.83 18.58l.233.92a5010.979 5010.979 0 01-.907 44.998l-3.356 97.95c.077-.5.103-.909.169-1.382-.842 21.163-1.75 41.75-2.67 61.289a30184.8 30184.8 0 01-3.834 75.252c-2.5 45.829-4.444 75.585-4.444 75.585l-1.166 18.963c-.933 10.127-2.047 21.022-2.838 23.9-.272.255-.466.575-.842.754-24.137 12.186-56.32 25.97-98.751 39.013-3.732.959-7.567 1.931-11.635 2.916 0 0 37.793-58.745 21.857-156.604.077-.346.156-.64.233-.998-.285.5-.453.767-.673 1.138.375-3.682-4.483-6.508-7.839-3.631-27.907 23.49-79.77 65.649-114.078 82.911-59.015 29.82-130.676 8.81-150.77-107.667-.83-4.552 5.208-7.276 8.175-3.67 17.193 20.485 54.403 54.857 108.287 51.775 30.732-1.765 60.725-20.127 82.893-37.824 0 0 .077 0 .077-.077 14.148-9.181 28.128-18.72 42.043-28.273.077-.077.155-.077.155-.153 4.055-2.046 10.702-6.253 15.03-9.258 21.765-4.002 42.767-8.555 58.457-12.276 66.97-15.92-11.168-39.793-11.168-39.793 128.991-88.743-44.699-44.5-76.26-41.085 17.698-3.58 77.815-35.42 101.382-76.429 20.717-36.047 24.37-65.879 20.198-89.535-5.895-18.67-13.072-35.024-21.818-46.827a113.075 113.075 0 00-10.157-10.907c-19.46-16.125-45.373-11.751-79.965 29.91 3.446-36.01-5.792-89.101-24.241-144.713-.052-.14-.103-.294-.156-.434a603.951 603.951 0 00-3.925-11.496c-.13-.358-.272-.716-.402-1.074a653.962 653.962 0 00-3.965-10.92l-.35-.883a559.53 559.53 0 00-4.288-11.125c-.142-.358-.298-.716-.44-1.086a712.79 712.79 0 00-4.444-10.895c-.182-.435-.376-.87-.57-1.317a688.743 688.743 0 00-4.56-10.6c-.39-.883-.804-1.752-1.193-2.635-1.386-3.082-2.76-6.15-4.198-9.207-.479-1.035-.984-2.045-1.464-3.081-1.373-2.903-2.733-5.793-4.146-8.657-.544-1.1-1.114-2.187-1.658-3.286-1.386-2.788-2.76-5.55-4.185-8.3-.609-1.176-1.244-2.327-1.866-3.49a420.977 420.977 0 00-4.21-7.928c-.596-1.113-1.231-2.2-1.853-3.3-1.464-2.646-2.928-5.293-4.43-7.902-.649-1.125-1.31-2.212-1.97-3.324-1.49-2.558-2.98-5.115-4.509-7.634-.765-1.253-1.555-2.481-2.332-3.721-1.451-2.328-2.876-4.668-4.353-6.956-.842-1.318-1.724-2.596-2.579-3.888-1.425-2.174-2.837-4.36-4.288-6.483-.946-1.394-1.93-2.736-2.876-4.105-1.4-1.994-2.773-4.002-4.185-5.946-.894-1.227-1.814-2.416-2.708-3.631-1.503-2.02-2.993-4.066-4.522-6.023-1.49-1.93-3.006-3.785-4.508-5.664-.972-1.19-1.918-2.43-2.89-3.606a328.618 328.618 0 00-6.037-7.072c-.505-.575-.998-1.189-1.516-1.764a284.433 284.433 0 00-7.709-8.363c-5.35-5.575-14.433 1.1-10.339 7.71a545.325 545.325 0 014.78 7.928c.597 1.023 1.219 2.123 1.828 3.172 1.023 1.777 2.047 3.542 3.096 5.396.778 1.406 1.568 2.89 2.358 4.335.881 1.61 1.762 3.21 2.656 4.884.894 1.688 1.788 3.44 2.695 5.192.79 1.535 1.594 3.069 2.384 4.655a437.74 437.74 0 012.928 5.984c.726 1.483 1.451 2.966 2.177 4.488 1.036 2.2 2.073 4.463 3.122 6.752a533.987 533.987 0 015.209 11.867 304.056 304.056 0 011.723 4.104 537.042 537.042 0 013.394 8.363 610.675 610.675 0 014.962 13.081c.428 1.163.843 2.365 1.27 3.555 1.192 3.35 2.384 6.726 3.537 10.19.324.947.635 1.932.946 2.89 1.23 3.76 2.462 7.558 3.64 11.445.182.589.35 1.202.519 1.79 7.009 23.286 13.086 48.988 17.452 77.107.907 6.918 1.8 14.117 2.694 21.623.117.997-.129 1.892-.582 2.672l-6.414 1.701c-.065-.038-.142-.077-.207-.115-1.114-3.107-40.034-109.228-143.476-166.655-.648-.767-1.309-1.534-1.956-2.301 1.088.37 2.163.729 3.135 1.061.207.077.272-.037.233-.256 0-.063-.065-.191-.103-.294a4.927 4.927 0 00-.35-.767c-.103-.192-.246-.41-.388-.652-.195-.32-.428-.69-.713-1.087-.22-.345-.453-.678-.725-1.061-.272-.371-.583-.793-.894-1.202-1.568-2.097-3.68-4.693-6.336-7.711-.064-.063-.117-.128-.168-.192-.907-1.036-1.905-2.11-2.928-3.222-.208-.218-.402-.435-.61-.652a160.368 160.368 0 00-3.355-3.491 17.835 17.835 0 00-.492-.499 222.864 222.864 0 00-18.8-16.968 1.067 1.067 0 00-.194-.154c-1.632-1.33-3.343-2.634-5.066-3.951a68.334 68.334 0 01-1.166-.87 237.608 237.608 0 00-5.118-3.695c-.44-.307-.893-.614-1.334-.92a194.15 194.15 0 00-5.506-3.67c-7.722-5.5-15.768-10.243-24.28-13.683-8.279-3.414-15.107-9.13-20.73-15.792l-.155-.192c-.907-1.33-1.84-2.647-2.773-3.938-.026-.05-.077-.103-.103-.154-.946-1.304-1.917-2.595-2.876-3.874-.026-.026-.052-.05-.065-.09a325 325 0 00-2.954-3.785c-.077-.103-.156-.192-.233-.281a156.25 156.25 0 00-2.85-3.453c-.09-.115-.195-.217-.286-.332-.946-1.1-1.878-2.174-2.837-3.223l-.402-.434c-.907-.998-1.827-1.97-2.733-2.916-.208-.205-.402-.384-.61-.588a96.742 96.742 0 00-2.578-2.545c-.272-.256-.544-.486-.816-.742-.803-.728-1.593-1.47-2.397-2.148-.31-.281-.635-.524-.959-.793-.764-.626-1.515-1.266-2.267-1.854-.389-.294-.764-.537-1.153-.818-.7-.524-1.4-1.049-2.099-1.522-.453-.307-.894-.562-1.347-.856-.635-.41-1.283-.832-1.918-1.202-.505-.282-.997-.525-1.503-.793-.583-.307-1.179-.652-1.762-.934-.557-.268-1.114-.473-1.671-.703-.531-.23-1.062-.473-1.594-.678-.609-.217-1.23-.383-1.84-.562-.479-.14-.958-.333-1.425-.448-.725-.179-1.438-.294-2.163-.409-.363-.063-.726-.166-1.102-.217a24.886 24.886 0 00-3.239-.205c-13.94 0-28.97 12.493-42.534 29.461a193.336 193.336 0 00-5.675 7.48c-6.116 8.3-14.006 15.499-23.814 19.54-3.822 1.534-7.553 3.337-11.207 5.332-1.308.716-2.578 1.586-3.86 2.366-2.307 1.368-4.613 2.697-6.841 4.22-1.594 1.086-3.11 2.314-4.677 3.465-1.853 1.38-3.745 2.71-5.572 4.181-1.723 1.394-3.394 2.915-5.078 4.386-1.581 1.368-3.188 2.685-4.73 4.117-1.852 1.714-3.653 3.517-5.467 5.307-1.308 1.291-2.643 2.532-3.939 3.85-2.02 2.07-4.003 4.219-5.985 6.341-1.01 1.1-2.034 2.149-3.032 3.248-2.28 2.532-4.509 5.09-6.737 7.647-.622.729-1.27 1.432-1.892 2.161a886.778 886.778 0 00-8.11 9.616c-104.97 58.284-143.528 166.795-143.528 166.795v.012l-6.569-1.739a4.32 4.32 0 01-.479-1.189c0-.026-.026-.05-.026-.077a3.935 3.935 0 01-.065-1.407c13.682-115.608 56.709-194.338 82.595-232.75 2.98-4.4-3.278-9.182-7.294-5.512a252.923 252.923 0 00-8.292 7.966c-5.48 5.499-10.857 11.38-16.13 17.595-17.906 21.1-34.477 46.021-49.285 72.772a303.057 303.057 0 00-1.93 3.504c-14.149 25.996-26.6 53.629-36.965 81.21-.596 1.573-1.205 3.146-1.788 4.719-18.125 49.333-29.423 98.026-31.522 136.183-.207 3.874-.363 7.685-.375 11.342-.04 6.1.207 11.866.725 17.263-32.351-39.078-57.11-45.6-76.117-33.234-5.856 5.076-13.37 12.71-20.108 22.902-5.234 8.989-9.834 19.692-13.863 31.494-6.037 24.59-3.77 56.532 18.864 95.904 23.554 41.008 83.684 72.848 101.369 76.428-31.548-3.414-205.25-47.657-76.26 41.085 0 0-78.138 23.874-11.168 39.794 13.746 3.26 31.587 7.148 50.438 10.767 7.41 4.066 14.848 7.94 22.31 11.431.156.077.234.154.376.218 17.115 13.516 35.202 25.855 54.17 36.648 16.739 11.904 36.613 22.556 57.227 26.891 1.036.358 2.008.729 2.98 1.1 2.228.805 4.171.805 5.882.294 1.554.14 3.2.434 4.755.511 53.962 3.082 91.094-31.29 108.274-51.775 3.057-3.606 9.017-.882 8.266 3.67-20.173 116.478-91.755 137.487-150.848 107.668-34.23-17.263-86.171-59.422-114.079-82.912-3.148-2.698-7.488-.37-7.722 2.966l-.272-.473c.077.358.156.652.234.998-15.936 97.86 21.87 156.604 21.87 156.604-.402-.09-.752-.18-1.14-.282-48.638-11.853-70.87-22.057-97.599-35.484-3.926-1.982-7.968-4.028-12.192-6.163-1.412-.73-4.755-43.617-4.755-43.617s-6.102-112.348-10.39-203.686c-.065.805-.117 1.598-.169 2.34-1.956-47.3-3.64-97.847-4.444-145.773l-.013-.397c-.012-1.406-.038-2.8-.064-4.22l.013-.012c-.492-31.66-.609-62.068-.142-89.484.012-.473.012-.946.026-1.42.077-4.13.155-8.196.259-12.186.012-.652.039-1.29.052-1.943.103-4.015.22-7.967.363-11.815 3.718-105.174 49.557-226.37 101.2-291.956 16.972-21.444 35.202-39.883 53.288-55.598 1.568-1.394 3.861.447 2.902 2.353-24.551 46.046-41.07 96.504-50.606 145.785-1.192 6.33 8.266 9.041 10.935 3.095 37.145-83.807 144.15-245.986 241.048-301.725 28.05-16.086 92.714-36.865 152.04-37.965v-.077h.661v.077c.674 0 1.412.063 2.086.063.674 0 1.334-.063 2.008-.063v-.077h.44v.077c59.313 1.1 123.977 21.879 152.027 37.965 4.898 2.813 9.743 5.818 14.576 8.849.026.012.038.012.052.038 28.452 18.12 53.25 37.67 74.99 58.002l.012.012a454.177 454.177 0 018.383 8.043c.298.295.608.576.894.87 2.565 2.506 5.052 5.05 7.527 7.583.453.473.92.933 1.373 1.393a597.596 597.596 0 016.906 7.327c.531.576 1.088 1.151 1.62 1.74a465.434 465.434 0 016.387 7.096c.596.678 1.205 1.356 1.8 2.034a558.191 558.191 0 015.922 6.905c.647.767 1.295 1.521 1.93 2.276a421.278 421.278 0 015.52 6.751c.673.831 1.347 1.65 1.995 2.468a549.681 549.681 0 015.208 6.65c.66.869 1.334 1.738 1.995 2.608a451.478 451.478 0 014.885 6.521c.673.921 1.347 1.829 2.008 2.75a421.737 421.737 0 014.625 6.432c.661.946 1.322 1.88 1.983 2.826a610.75 610.75 0 014.327 6.33c.674.984 1.334 1.968 1.995 2.953a571.704 571.704 0 014.107 6.227c.648 1.01 1.296 2.008 1.93 3.005a533.41 533.41 0 013.875 6.125c.66 1.036 1.295 2.072 1.93 3.108 1.23 2.007 2.449 4.015 3.654 6.01.634 1.06 1.256 2.122 1.891 3.17 1.166 1.97 2.32 3.926 3.447 5.883.634 1.1 1.243 2.186 1.865 3.273a523.785 523.785 0 013.24 5.729c.634 1.125 1.243 2.238 1.865 3.363 1.023 1.867 2.034 3.721 3.045 5.575a430.66 430.66 0 011.813 3.414 741.65 741.65 0 012.877 5.435c.609 1.176 1.205 2.34 1.8 3.503.92 1.765 1.827 3.53 2.708 5.282.583 1.15 1.154 2.289 1.737 3.44.868 1.751 1.749 3.503 2.604 5.242.583 1.176 1.14 2.34 1.697 3.491.816 1.675 1.645 3.35 2.423 5 .622 1.279 1.218 2.544 1.814 3.798a481.689 481.689 0 012.176 4.603c.635 1.368 1.27 2.71 1.892 4.066.648 1.394 1.308 2.8 1.943 4.169a5859.6 5859.6 0 012.034 4.475c.557 1.215 1.128 2.455 1.672 3.657.842 1.855 1.658 3.683 2.487 5.512.35.78.713 1.598 1.063 2.378 1.179 2.634 2.345 5.23 3.485 7.8 3.718 8.299 16.441 4.194 14.433-4.693a591.145 591.145 0 00-4.314-17.633c-.234-.895-.506-1.79-.739-2.698a614.027 614.027 0 00-4.366-15.485c-.156-.512-.324-1.023-.48-1.535a510.241 510.241 0 00-5.402-16.879 1.98 1.98 0 00-.091-.256 502.079 502.079 0 00-6.388-17.76c-3.9-11.931-8.862-23.414-16.39-38.362-2.772-5.755-5.635-11.483-8.64-17.122-.221-.41-.221-.806-.156-1.19a1.876 1.876 0 01.492-.908c.102-.102.194-.217.31-.306a1.93 1.93 0 01.868-.32h.013c.39.026.79.128 1.14.448 18.087 15.715 36.316 34.154 53.289 55.598 51.643 65.585 97.482 186.782 101.213 291.955 1.153 33.068 1.218 72.401.596 113.985zm-513.891-577.89c-82.207 0-148.84 26.074-148.84 58.246 0 32.173 66.633 58.258 148.84 58.258 82.193 0 148.84-26.085 148.84-58.258 0-32.172-66.647-58.245-148.84-58.245zm352.807 713.254c.998 0 3.693-.282 7.463-.69-7.022 1.431-10.093.69-7.463.69"
          ></path>
          <path
            fill="#282828"
            d="M4242.657 6652.115c22.621-11.751 46.214-21.815 70.844-29.231 3.653-1.177 2.604-6.458-1.192-6.317-48.508 2.43-93.388 13.733-135.949 37.53-.375.218-.53.665-.894.883 2.151-35.92-14.29-84.536-46.59-128.012-4.236-5.729-13.396-1.688-11.686 5.204 10.054 40.1 20.172 115.097-12.127 200.003-.143.806-.22 1.612-.376 2.417 1.568 15.946 19.732 180.388 121.606 196.257 28.88 4.552 61.84 17.326 114.973-20.127 25.6-17.992 70.921-95.558 92.429-134.111 2.448-4.412-3.434-8.67-7.295-5.358-27.907 23.49-79.77 65.649-114.091 82.911-59.002 29.82-130.663 8.81-150.757-107.667-.83-4.552 5.208-7.276 8.175-3.67 17.193 20.485 54.403 54.857 108.287 51.775 30.732-1.765 60.725-20.127 82.893-37.824 0 0 .077 0 .077-.077 14.148-9.181 28.128-18.72 42.043-28.273.077-.077.155-.077.155-.153 6.698-3.376 20.535-12.698 19.201-12.621-34.463 1.752-106.046 8.734-110.891-7.135-.959-3.3-.44-6.534 3.057-6.905 19.28-2.123 89.45-8.363 126.802-22.544 1.943-.729 1.49-3.53-.518-3.67-28.724-2.135-130.08-9.616-195.262-11.316-6.634-.141-8.72-8.887-2.915-11.97"
          ></path>
          <path
            fill="#282828"
            d="M6059.453 4094.18c13.992-147.999-73.527-438.778-151.069-501.793-3.42-2.787-7.216-4.846-11.233-6.24 3.499-63.68 2.009-156.885-29.695-204.632-67.203-101.197-168.481-128.306-201.144-134.623-33.867-22.761-161.666-122.27-438.81-122.27-7.735 0-15.547.077-23.502.14-314.717 4.706-617.19 170.312-877.284 326.903-309.495-149.903-814.213-343.027-1262.883-343.027-62.203 0-124.418 3.145-186.413 9.986-266.338 29.45-358.003 141.567-399.164 167.499-55.504-1.688-217.585 1.829-280.552 92.246-18.151 25.996-86.702 110.315-94.58 119.573-4.612 5.434-114.091 136.17-140.055 402.04-5.74 58.616-1.334 352.323 135.741 473.29-1.71 5.076-2.384 10.51-1.645 16.085 81.338 612.926 449.188 1048.531 494.65 1071.011 7.813 3.888 13.696 17.403 18.023 27.313 2.37 5.371 4.6 10.435 7.437 15.281 16.363 27.761 54.623 40.765 102.988 54.87 7.67 2.276 17.93 5.28 22.18 6.905 7.295 4.846 393.218 169.8 440.547 189.044 113.871 46.124 184.482 73.526 195.793 97.911 18.164 39.295 58.12 50.906 98.984 59.716.817.141 1.413.883 1.49 1.752 1.412 28.439 10.78 50.97 28.568 68.757 1.348 1.317 2.76 2.634 4.172 3.963 17.634 16.087 40.333 25.78 64.444 27.685 1.568.153 2.306 1.918 1.257 3.081-6.919 7.724-13.54 15.575-19.784 23.516-60.285 76.454-106.72 202.931-115.582 312.581h-.518c-29.242 0-56.774 14.846-75.599 40.625-32.3 44.281-91.314 233.991-85.368 290.255.752 6.828 1.646 13.439 2.838 19.832.142.883-.376 1.765-1.192 2.06-21.43 7.71-38.7 24.307-46.888 45.905-11.233 29.602-3.498 62.056 19.576 83.653.519.435.739 1.1.519 1.765-4.833 15.792-4.392 33.272 3.2 50.458 7.67 17.326 22.323 30.779 39.671 38.847l89.074 41.43v1.164c-1.568.37-3.2.742-4.846 1.112-22.764 5.652-227.185 59.563-326.766 196.769-121.152 166.936-65.934 332.58 27.234 433.496 16.61 17.915 16.532 18.426 14.29 31.136-7.514 43.413 4.03 103.32 62.15 163.842 51.424 53.552 111.462 43.706 155.824 50.535 41.9 6.534 81.416 12.633 139.757 54.575 79.253 56.915 184.262 140.722 330.705 140.722 70.028 0 139.835-22.62 214.994-53.258 72.334-29.372 126.218-56.916 169.53-79.024 65.558-33.413 108.352-62.35 154.19-62.35 10.353 0 21.288.882 33.337 2.71 16.376 2.43 32.818 3.67 48.96 3.67 80.679 0 169.273-15.293 234.234-73.538 50.166-45.024 82.686-110.098 109.026-177.383 44.647-113.831 52.356-225.885 86.586-269.438 11.829-15.063 23.217-28.285 34.23-41.06 45.32-52.516 119.96-116.784 115.866-225.334-3.122-82.566-70.546-156.962-181.126-200.809a1.774 1.774 0 01-1.114-1.841c.44-6.317.065-12.698-1.192-18.938-.454-2.506-1.115-5-1.866-7.43-.155-.651 0-1.393.518-1.828 23.153-21.597 30.81-54.05 19.655-83.653-8.266-21.598-25.46-38.195-46.889-45.906-.893-.294-1.334-1.176-1.192-2.059 1.115-6.393 2.086-13.08 2.76-19.832 5.947-56.264-53.068-245.974-85.355-290.255-18.838-25.779-46.37-40.625-75.547-40.625h-.064c-8.862-109.65-55.296-236.127-115.568-312.581-7.074-8.964-14.589-17.787-22.401-26.367 1.865.14 3.718.14 5.584.14 27.454 0 53.573-9.91 73.37-28.055 1.49-1.33 2.902-2.646 4.237-4.04 17.71-17.71 27.169-40.241 28.581-68.68.077-.87.674-1.611 1.49-1.752 40.786-8.81 80.82-20.42 98.972-59.716 11.09-24.014 88.334-51.787 213.425-105.915 67.282-27.838 232.265-97.975 312.554-132.488 22.038-8.9 39.593-16.163 53.742-22.109.816.141 1.554.294 2.448.358l-.518-1.176c35.565-15.28 48.002-22.109 53.288-25.625 4.237-1.624 14.511-4.63 22.168-6.905 48.3-14.105 86.625-27.109 103.001-54.87 2.825-4.846 5.053-9.91 7.36-15.28 4.327-9.91 10.274-23.426 18.086-27.314 27.973-13.81 128.227-143.522 221.472-315.24 88.853-163.714 201.895-421.873 238.574-725.069 10.43-10.357 21.805-23.349 33.336-39.73 48.753-69.267 79.252-165.478 90.718-286.15zm-217.676-288.798c17.426-34.96 143.411 17.34 134.109 287.25-8.487 246.932-117.357 295.037-118.393 295.549-2.98 1.176-3.732 1.841-6.258 3.747-222.508 164.672-451.637 169.595-534.62 164.966-.441-14.027-2.605-28.937-7.062-44.358 11.09-17.915 33.258-63.386 22.544-125.749-9.976-58.015-45.541-113.255-105.67-164.954 39.814-13.222 80.289-27.914 120.777-44.217 255.105-102.975 419.868-221.806 494.573-372.234zm-46.357-379.278c29.773 36.724 13.099 118.613-2.462 181.193-66.97 269.259-300.789 393.537-406.834 452.28-55.737 30.856-273.413 169.455-615.804 176.284-184.184 3.67-275.343-88.142-599.44-67.861-230.619 14.385-616.244 14.833-632.167 14.615-162.535-6.61-302.059-81.083-386.895-123.536 434.224-47.53 836.148-304.96 1093.637-469.99 278.09-178.19 609.028-360.994 955.15-366.211 245.13-3.593 362.11 86.44 402.896 118.255 5.351 4.182 12.062 7.046 18.903 7.852 3.796.524 104.854-6.906 173.016 77.118zm39.672 1067.405c-76.649 467.42-317.697 813.938-384.304 890.175 0 0-96.368-90.047-102.69-85.853-17.115 11.24 49.194 139.111 49.194 139.111.376.588.88 1.023 1.334 1.535-.453 46.865-48.818 54.204-72.852 48.923-21.805 6.381-260.91 126.183-552.332 247.367-13.24 5.499-27.985 3.81-40.176-2.57-.156-.154-.298-.218-.454-.37-22.466-21.88-67.644-86.966-147.933-139.035-.077-.077-.077-.077-.155-.077-37.21-20.562-105.528-48.617-133.798-59.934 78.203-31.801 235.75-86.44 327.505-120.736 17.192-6.393 22.699-28.208 16.078-45.1-.298-.818-152.558-429.673-229.44-1082.762-2.008-16.892 22.026-8.299 38.713-4.04.065 0 .143.076.208.076.155.294.298.742.453 1.036l146.378 259.476c2.604 4.63 6.103 8.593 10.352 11.675l287.768 210.578c8.551 6.24 19.499 8.593 29.98 6.394 3.356-.73 6.414-1.982 9.38-3.53 67.126 250.385 207.855 479.543 225.113 468.444 17.193-11.087-105.89-236.421-161.252-582.876-.375-2.276-.375-4.475-.894-6.61 28.27 15.651 57.227 29.82 86.69 41.8 16 6.535 34.385 1.318 44.426-12.492 1.114-1.547 12.878-18.069 22.246-44.218 83.204 5.946 332.052-4.182 530.462-136.388zm-576.664-96.07c3.2 16.968-.155 44.73-2.54 56.915l-238.132-175.388c35.137-8.363 84.163-19.244 122.94-30.471 67.864 48.181 108.508 99.368 117.732 148.944zm-27.467 116.708c17.115 35.701 11.687 93.359 3.874 115.237-33.491-22.032-64.599-49.498-92.35-63.232-172.874-85.571-233.38-197.868-286.357-254.579 22.246-3.145 62.28-10.562 90.94-16.073 1.476 1.534 283.155 216.588 283.155 216.588.298.742.44 1.407.738 2.059zm-165.125 77.784c25.07 28.937 17.633 99.88-9.6 119.496 0 0-29.994-44-71.959-72.273-61.399-41.571-143.113-99.369-172.433-132.13-37.883-42.376-127.695-205.655-127.695-205.655 20.911 5 74.109 18.362 93.608 19.833.829 1.841 46.966 61.186 121.153 133.012 46.149 44.652 103.143 94.228 166.926 137.717zm-153.232 2476.776c3.796 100.775-43.753 128.536-106.564 208.443-62.811 79.906-82.155 191.985-127.773 303.182-45.696 111.197-154.566 237.163-311.88 213.737-133.434-19.91-180.543 47.734-389.874 132.858-209.268 85.124-355.27 23.503-482.227-67.708-138.565-99.522-208.813-39.96-280.564-114.65-81.183-84.547 16.972-93.87-64.807-182.446-81.792-88.653-123.756-226.728-32.377-352.694 82.53-113.69 260.69-162.243 283.091-167.972 1.18-.294 2.371.512 2.371 1.765.376 18.145.531 135.582-48.443 153.139-72.476 25.996-142.426 88.423-178.004 151.885-1.036 1.982 1.632 4.04 3.278 2.417 78.358-75.355 211.793-84.83 301.683-63.961 37.288 8.656-158.285 61.685-225.488 263.3-.44 1.393 1.114 2.723 2.164 1.546 83.566-86.53 197.205-145.287 316.867-172.523 180.543-41.06 158.583-2.43 151.146 2.416-14.368 9.181-203.307 187.587-210.9 377.08.376 0 75.081-169.66 205.394-253.76 193.188-124.713 384.744-132.5 335.55 71.901-.531 2.136 2.449 3.3 3.498 1.317 45.32-84.458 175.322-175.823 310.17-221.946 100.901-34.589 113.702-17.991 222.054-73.59 92.727-47.53 157.766-162.907 224.153-181.935 1.93-.511 1.853-3.235-.155-3.593-52.161-9.923-104.854-3.9-146.754 23.643-1.179.806-2.89 0-2.89-1.47l-2.02-176.565c0-.805.609-1.61 1.412-1.84 102.262-29.373 244.093 27.696 247.889 128.024zm-166.395-294.309c4.755-1.457 8.408 4.271 4.612 7.494l-76.13 65.303c-3.045 2.635-1.257 7.417 2.902 7.711l45.398 2.788c2.008.077 2.527 2.723.752 3.593l-103.001 47.81c-3.719 1.766-18.54-62.132-18.98-64.843l-19.798-132.206c-.44-3.081 2.462-5.652 5.662-4.923l74.122 28.35c.376.076.739.153 1.114.153 3.563 0 6.025-3.824 3.874-6.828-15.107-21.304-69.665-91.147-71.816-130.966-2.163-39.001 64.288-70.137-2.241-138.37a1.838 1.838 0 01-.44-1.905c15.326-48.335 33.569-28.132 38.544-21.303 24.331 33.413 75.47 204.99 71.738 239.733-2.306 21.738-7.657 48.834-24.474 69.702-10.054 12.48-24.267 22.685-44.504 28.055-.894.218-1.866.358-2.838.588l3.433 29.667c.363 2.8 3.343 4.629 6.168 3.746zM4515.668 4332.66c84.603 616.736 181.644 935.276 213.724 1028.775-71.064 37.16-176.372 75.432-246.995 104.663 43.39-45.688 96.743-106.939 127.099-142.116.077-.154.155-.307.233-.448 6.776-15.575 7.657-31.878 4.988-45.611-15.107-76.608-117.291-76.608-155.758-76.608-36.018 0-108.65 4.117-189.846 31.507-106.408 35.856-187.086 94.088-240.141 167.69-.739 1.024-2.306 1.024-3.058 0-69.134-95.123-165.644-168.495-280.396-207.125-69.885-23.58-153.232-37.684-223.026-37.684-35.202 0-124.133-2.634-137.905 67.35-5.804 29.167 15.482 74.549 54.48 92.988 0 0 .077 0 .143.077 3.951 2.353 11.609 10.28 20.393 20.268.077.077 89.824 148.803 187.682 184.722 1.632.653 1.632 2.865-.077 3.453-31.626 9.833-203.385 81.3-310.014 194.339-13.474 14.244-34.54 19.244-52.912 12.045-222.444-87.988-521.147-237.163-542.952-243.543-72.411 7.122-71.44-32.326-64.003-45.177 0 0 77.983-151.962 60.427-162.46-85.575 124.789-130.597 95.775-146.456 77.042-40.254-47.594-106.045-135.288-174.505-255.896-85.433-150.492-162.833-371.926-208.296-663.664 183.588 80.801 406.848 141.975 711.51 129.635-6.322 213.66-172.51 654.049-152.104 662.859 17.776 7.634 221.822-443.176 226.745-671.886 13.098-1.982 60.35-.742 92.494-79.984 16.596-40.842 33.854-138.74 23.45-247.597-5.441-56.033 54.17-96.44 105.074-71.096 87.22 43.489 173.612 75.354 315.598 84.024h1.05c3.718.077 446.208-4.258 683.59-18.362 89.085-5.281 147.945 3.9 200.34 14.104 49.259 9.552 92.649 44.576 99.425 93.717zm111.176 1451.236c3.045 6.982 3.861 18.733-4.69 37.313-8.253 17.85-100.021 22.915-107.536 36.878-7.514 13.874 9.458 55.97-6.763 72.196-.596.576-1.192 1.1-1.788 1.688-13.85 12.634-37.507 11.023-49.038-3.376-62.216-77.707-151.587-112.45-217.754-135.287-.518-1.19-.738-1.778-1.27-2.878 11.765-31.06 3.434-68.002-10.559-101.056-.596-1.394.596-2.865 2.151-2.57 13.772 3.005 27.765 5.357 41.68 8.593a593.466 593.466 0 01101.653 33.348c1.335.512 3.058-1.112 1.71-2.212-48.598-37.965-116.164-86.658-181.203-84.165-14.667.589 8.486 126.618-65.636 124.93-18.23-.434-37.884-.728-58.95-1.252-17.854-.435-47.096-.576-64.962-.141-22.686.665-43.675.665-63.096 1.394-76.208 2.94-47.485-124.342-62.073-124.93-65.118-2.494-132.684 46.2-181.282 84.164-1.334 1.1.454 2.724 1.71 2.212 32.896-14.18 66.763-25.267 101.654-33.348 13.992-3.236 27.907-5.588 41.757-8.593a1.864 1.864 0 012.086 2.57c-13.396 31.584-21.585 66.761-11.92 97.029-1.334 2.634-2.007 4.104-3.342 6.828-66.09 22.838-155.525 57.58-217.818 135.364-11.531 14.399-35.124 16.01-49.039 3.376-.596-.588-1.192-1.112-1.71-1.688-16.299-16.227.674-58.322-6.854-72.196-7.514-13.963-99.192-19.027-107.458-36.878-8.629-18.58-7.812-30.331-4.768-37.313 2.32-5.28 73.682-126.324 329.383-178.035 40.112-8.145 57.072-10.715 84.383-12.48 1.05-.077 1.931-.96 1.866-2.059-8.629-116.49-159.412-212.266-157.844-209.03 24.487 49.575 101.653 135.875 75.987 131.54-16.674-8.964-31.405-6.61-61.994-22.109-129.264-65.508-209.488-216.665-263.217-238.109-53.729-21.38 66.97-58.757 271.172 9.258 186.127 61.915 265.677 198.15 296.785 267.788.518 1.177-.298 2.417-1.645 2.57-39.815 3.082-78.203 24.155-103.209 65.585-5.726 9.322 1.788 17.698 11.31 11.97 66.077-39.948 160.527-43.694 226.383 1.546 1.192.806 0-8.081-.674-9.18-24.409-42.53-62.435-63.028-104.115-68.974-1.192-.141-1.93-1.177-1.555-2.277 17.556-59.933 66.452-168.188 248.408-229.592 146.52-49.359 301.087-24.168 247.358-2.788-53.73 21.444-96.225 115.749-187.903 189.122-16.299 13.08-57.68 27.543-82.452 24.973-25.602 4.335 51.565-81.965 75.974-131.541 1.646-3.235-175.62 91.223-135.443 209.977.233.742.972 1.253 1.788 1.33 27.687 1.688 44.958 2.864 85.057 12.48 246.697 59.051 326.999 172.754 329.305 178.035zm-24.927 1410.483c0 .653-.298 1.24-.817 1.612-197.891 136.975-944.37 136.975-1142.236 0a1.955 1.955 0 01-.816-1.611c.363-11.24 4.016-112.68 4.094-224.095 0-1.47 1.555-2.417 2.825-1.688 23.437 13.81 192.955 105.11 564.976 105.11 393.438 0 542.654-92.335 564.822-107.82 1.27-.883 2.98.077 2.98 1.61.155 111.415 3.718 215.425 4.172 226.882zm-59.469-817.173c5.662 160.708-14.433 468.597-14.433 468.597l-2.462 39.87c-.064 1.624-.88 3.018-2.37 3.747-26.794 13.516-63.33 29.014-112.965 43.271-7.074 1.982-111.85 104.573-245.583 39.794-40.488 2.877-84.616 4.488-132.981 4.565v.077c-.077 0-.22-.077-.298-.077-.143 0-.234.077-.376.077v-.077H4026.886v.077c-.065 0-.22-.077-.298-.077-.143 0-.22.077-.376.077v-.077c-70.17-.154-95.914.217-149.876-5.294-60.427 33.643-136.104 27.543-230.683-40.395-56.71-13.733-77.763-25.19-110.957-41.941-1.412-.73-4.767-43.617-4.767-43.617s-20.173-307.889-14.511-468.597c3.718-105.174 49.557-226.37 101.2-291.956 16.972-21.444 35.215-39.883 53.288-55.598 1.568-1.394 3.874.447 2.903 2.353-24.552 46.046-41.071 96.504-50.607 145.786-1.192 6.33 8.266 9.04 10.948 3.094 37.132-83.807 144.15-245.986 241.035-301.725 28.05-16.086 92.727-36.865 152.027-37.965v-.077H4026.886v.077c.674 0 1.412.063 2.086.063.66 0 1.334-.063 2.008-.063v-.077H4031.654v.077c59.39 1.1 124.417 21.585 152.027 37.965 140.729 83.577 196.7 201.679 233.754 285.191 3.718 8.3 16.44 4.194 14.433-4.692-9.82-43.413-25.226-87.26-46.81-127.73-.96-1.83 1.334-3.671 2.902-2.277 18.164 15.715 36.315 34.154 53.288 55.598 51.72 65.585 97.56 186.782 101.2 291.956zm-449.33-2912.536c20.094 13.146 23.968 39.807 3.73 52.811-.155.063-595.345 534.758-1196.262 463.15-236.359-28.132-416.59-160.338-535.813-287.698-58.199-62.055-124.43-177.293-91.613-255.448 3.278-7.71 6.556-14.091 9.756-18.72 38.467-55.24 154.191-33.196 216.108-29.82 8.551.435 16.96-1.982 23.891-6.905 1.335-.959 137.516-132.794 429.456-163.867 447.62-47.657 913.185 97.77 1140.746 246.497zm-623.319 3242.456c3.2-.729 6.18 1.842 5.74 4.923l-19.875 132.206c-.453 2.711-15.262 66.608-18.98 64.844l-102.924-47.811c-1.788-.87-1.334-3.517.674-3.593l45.463-2.788c4.094-.294 5.882-5.076 2.837-7.71l-76.13-65.304c-3.718-3.223-.155-8.951 4.613-7.494l105.967 33.35c2.825.882 5.805-.947 6.103-3.747l3.433-29.667c-.971-.23-1.943-.37-2.837-.588-25.148-6.688-41.149-21.009-51.345-37.824-11.531-19.104-15.625-41.507-17.633-59.933-3.654-34.743 47.393-206.32 71.815-239.733 4.898-6.829 23.127-27.032 38.545 21.303.22.652 0 1.394-.454 1.905-66.594 68.232-.142 99.369-2.228 138.37-2.15 39.819-54.545 102.974-69.652 124.278-1.192 1.611-.972 3.452 0 4.846.958 1.394 2.902 2.276 4.988 1.841zM3017.191 4066.93c49.259 106.721 37.508 252.15 22.4 344.255-6.62 40.318-39.062 72.043-80.146 77.4-53.729 7.059-106.045 10.217-156.95 10.217-258.008 0-463.764-83-608.885-167.46-130.455-75.955-152.403-266.1-146.974-405.799 8.706-224.593 116.462-291.367 148.905-252.955a1244.549 1244.549 0 00100.176 105.468c119.585 111.939 319.096 251.715 590.798 281.892 43.688 4.847 87.065 7.2 130.676 6.982"
          ></path>
          <path
            fill="#fff"
            d="M5975.886 4092.632c9.302-269.91-116.683-322.21-134.11-287.25-74.704 150.428-239.467 269.259-494.572 372.233-40.488 16.304-80.963 30.996-120.777 44.218 60.129 51.699 95.694 106.939 105.67 164.954 10.714 62.363-11.453 107.834-22.544 125.749 4.457 15.421 6.62 30.33 7.061 44.358 82.984 4.63 312.113-.294 534.62-164.966 2.527-1.906 3.279-2.57 6.259-3.747 1.036-.511 109.906-48.617 118.393-295.549"
          ></path>
          <path
            fill="#fff"
            d="M5450.788 5383.684c66.607-76.237 307.655-422.755 384.304-890.176-198.41 132.207-447.258 142.334-530.462 136.388-9.368 26.15-21.132 42.67-22.246 44.218-10.04 13.81-28.426 19.027-44.426 12.493-29.462-11.982-58.42-26.15-86.69-41.801.519 2.135.519 4.335.894 6.61 55.362 346.455 178.445 571.79 161.252 582.876-17.257 11.1-157.987-218.059-225.112-468.443-2.967 1.547-6.025 2.8-9.38 3.529-10.482 2.2-21.43-.154-29.98-6.394l-287.769-210.578c-4.25-3.082-7.748-7.046-10.352-11.675l-146.378-259.476c-.155-.294-.298-.742-.454-1.036-.063 0-.142-.077-.207-.077-16.687-4.258-40.72-12.85-38.712 4.041 76.881 653.09 229.141 1081.944 229.44 1082.762 6.62 16.892 1.113 38.707-16.08 45.1-91.754 34.295-249.3 88.935-327.504 120.736 28.27 11.317 96.588 39.372 133.798 59.934.077 0 .077 0 .155.077 80.29 52.069 125.467 117.155 147.933 139.034.156.154.298.218.454.37 12.191 6.382 26.935 8.07 40.177 2.571 291.421-121.183 530.526-240.986 552.331-247.367 24.034 5.282 72.399-2.058 72.852-48.923-.453-.512-.958-.946-1.334-1.535 0 0-66.31-127.87-49.195-139.11 6.323-4.195 102.69 85.852 102.69 85.852"
          ></path>
          <path
            fill="#fff"
            d="M4806.04 7277.15c62.811-79.907 110.36-107.668 106.564-208.443-3.796-100.328-145.627-157.397-247.89-128.025-.802.23-1.411 1.036-1.411 1.842l2.02 176.564c0 1.47 1.711 2.276 2.89 1.47 41.9-27.543 94.593-33.566 146.754-23.643 2.008.358 2.086 3.082.155 3.593-66.387 19.028-131.427 134.406-224.153 181.936-108.352 55.598-121.153 39-222.055 73.59-134.847 46.123-264.849 137.487-310.17 221.945-1.048 1.982-4.028.819-3.497-1.317 49.194-204.402-142.362-196.614-335.55-71.902-130.313 84.101-205.018 253.76-205.393 253.76 7.592-189.492 196.53-367.897 210.899-377.079 7.437-4.846 29.397-43.476-151.146-2.416-119.662 27.236-233.3 85.993-316.867 172.523-1.05 1.177-2.605-.153-2.164-1.547 67.203-201.614 262.776-254.642 225.488-263.3-89.89-20.868-223.325-11.393-301.683 63.962-1.646 1.624-4.314-.435-3.278-2.417 35.578-63.462 105.528-125.89 178.004-151.885 48.974-17.557 48.819-134.994 48.443-153.139 0-1.253-1.192-2.059-2.371-1.765-22.401 5.729-200.56 54.282-283.09 167.972-91.38 125.966-49.416 264.041 32.376 352.694 81.78 88.577-16.376 97.899 64.807 182.447 71.75 74.69 141.999 15.127 280.564 114.65 126.957 91.21 272.96 152.831 482.226 67.707 209.332-85.124 256.44-152.767 389.875-132.858 157.314 23.426 266.184-102.54 311.88-213.737 45.618-111.197 64.962-223.276 127.773-303.182"
          ></path>
          <path
            fill="#fff"
            d="M4729.392 5361.434c-32.08-93.5-129.12-412.04-213.724-1028.775-6.776-49.14-50.166-84.164-99.425-93.717-52.395-10.204-111.254-19.385-200.34-14.104-237.382 14.104-679.872 18.44-683.59 18.363h-1.05c-141.986-8.67-228.377-40.536-315.598-84.025-50.904-25.344-110.515 15.064-105.074 71.097 10.404 108.857-6.853 206.755-23.45 247.597-32.144 79.242-79.395 78.001-92.494 79.983-4.923 228.71-208.969 679.52-226.745 671.887-20.406-8.81 145.782-449.2 152.105-662.86-304.663 12.34-527.922-48.833-711.51-129.635 45.463 291.738 122.862 513.173 208.295 663.665 68.46 120.608 134.251 208.302 174.506 255.895 15.858 18.734 60.88 47.748 146.455-77.042 17.556 10.498-60.427 162.46-60.427 162.46-7.437 12.851-8.408 52.3 64.003 45.177 21.805 6.381 320.508 155.556 542.952 243.544 18.372 7.199 39.438 2.2 52.913-12.046 106.628-113.038 278.387-184.505 310.013-194.338 1.71-.589 1.71-2.8.077-3.453-97.857-35.919-187.604-184.646-187.682-184.723-8.784-9.986-16.441-17.914-20.393-20.267-.065-.077-.142-.077-.142-.077-38.998-18.44-60.285-63.82-54.48-92.988 13.772-69.984 102.702-67.35 137.904-67.35 69.795 0 153.141 14.104 223.026 37.684 114.753 38.63 211.263 112.002 280.396 207.125.752 1.023 2.32 1.023 3.058 0 53.055-73.602 133.733-131.835 240.141-167.69 81.196-27.39 153.828-31.507 189.846-31.507 38.467 0 140.652 0 155.759 76.607 2.669 13.734 1.788 30.037-4.989 45.612-.077.14-.155.294-.233.448-30.356 35.177-83.71 96.427-127.1 142.116 70.625-29.232 175.932-67.503 246.996-104.663"
          ></path>
          <path
            fill="#fff"
            d="M4601.1 7195.99c.519-.371.817-.96.817-1.611-.454-11.458-4.017-115.468-4.172-226.882 0-1.535-1.71-2.494-2.98-1.611-22.168 15.485-171.383 107.82-564.822 107.82-372.021 0-541.539-91.3-564.976-105.11-1.27-.729-2.825.218-2.825 1.688-.077 111.414-3.731 212.855-4.094 224.094 0 .653.298 1.24.816 1.612 197.866 136.975 944.345 136.975 1142.236 0"
          ></path>
          <path
            fill="#fff"
            d="M3039.592 4411.185c15.107-92.106 26.858-237.534-22.401-344.255-43.61.218-86.988-2.135-130.676-6.982-271.702-30.177-471.213-169.953-590.798-281.892a1244.549 1244.549 0 01-100.176-105.468c-32.443-38.412-140.199 28.362-148.905 252.955-5.429 139.7 16.519 329.844 146.974 405.8 145.121 84.458 350.877 167.46 608.885 167.46 50.905 0 103.221-3.16 156.95-10.218 41.084-5.357 73.526-37.082 80.147-77.4"
          ></path>
          <path
            fill="#282828"
            d="M3879.277 6158.545c64.443-32.236 142.284-40.535 214.916-28.707.298.063.751.217 1.127.37.363.142.816 0 1.257.064 20.25 3.452 63.251 17.633 82.31 24.167 3.64 1.317-29.54-43.258-78.138-64.268-8.331-3.606-15.703-8.963-20.691-16.227-15.483-22.48-33.634-40.982-50.905-40.982-15.923 0-33.258 16.303-48.21 36.942-6.115 8.299-14.005 15.498-23.813 19.538-30.887 12.48-56.126 40.83-78.67 68.08-.517.587.078 1.393.817 1.022"
          ></path>
          <path
            fill="#282828"
            d="M4026.925 6425.016c.673.077 1.347.153 2.086.217.673-.063 1.412-.14 2.008-.217v-.063c.077 0 .22.063.376.063h.298c14.277 1.33 41.822 6.1 69.716 24.244 39.97 26.073 62.967-3.452 82.31 10.422 6.621 4.77 9.977 10.14 11.311 15.651.077.282.077.576 0 .883-1.93 12.109-7.657 23.131-17.633 31.801-11.687 10.127-3.498 27.978 12.282 26.584 50.076-4.475 99.05-26.072 143.696-49.358 6.323-3.299 3.796-12.928-3.342-12.633-70.326 2.94-96.005-29.232-103.364-41.865-1.425-2.494-.077-5.73 2.747-6.535 78.216-23.285 142.88 2.2 162.534 11.534 2.967 1.394 6.62-.23 6.918-3.376 8.033-82.195-50.464-254.13-133.512-340.802-5.35-5.575-14.433 1.1-10.34 7.71 25.965 42.02 61.465 115.762 73.67 218.801.375 3.67-3.797 6.317-7.217 4.412-8.551-4.847-20.315-9.77-30.577-11.534-2.02-.294-3.731-1.47-4.625-3.312-40.695-82.618-150.472-125.953-254.872-125.953-.752 0-1.49.077-2.242.077v.063h-.065v-.063h-.154v.063h-.077v-.063c-.739 0-1.49-.077-2.228-.077-104.414 0-214.178 43.335-254.95 125.953-.895 1.841-2.605 3.018-4.613 3.312-10.197 1.764-22.038 6.687-30.59 11.534-3.342 1.905-7.592-.742-7.138-4.412 13.681-115.608 56.709-194.339 82.595-232.751 2.98-4.399-3.278-9.181-7.294-5.511-89.294 81.825-153.97 266.394-145.562 352.554.375 3.145 4.016 4.769 6.996 3.375 19.655-9.334 84.254-34.82 162.457-11.534 2.902.806 4.236 4.041 2.76 6.535-7.308 12.633-32.974 44.806-103.3 41.865-7.216-.295-9.756 9.334-3.355 12.633 44.582 23.286 93.556 44.883 143.709 49.358 15.78 1.394 23.891-16.457 12.282-26.584-9.976-8.67-15.78-19.692-17.724-31.801a2.05 2.05 0 010-.883c1.348-5.511 4.69-10.882 11.324-15.651 19.343-13.874 42.34 15.651 82.375-10.422 27.907-18.145 55.439-22.914 69.665-24.244h.363c.077 0 .22-.063.298-.063zm188.2-132.424c4.25 3.082.83 9.476-4.237 7.865-37.663-11.829-119.895-30.268-181.735 8.145v.153c-.065 0-.142-.077-.142-.077-.077 0-.156.077-.156.077v-.153c-61.84-38.413-144.072-19.974-181.722-8.146-5.053 1.612-8.486-4.782-4.314-7.864 19.343-14.104 47.47-26.584 79.926-35.624 32.442-9.028 69.276-14.54 106.11-14.54h.298c73.604 0 147.285 22.033 185.972 50.164"
          ></path>
          <path
            fill="#282828"
            d="M3932.708 6646.975c-5.351-52.3 2.682-95.328 9.6-120.75 1.413-4.986-5.648-7.71-8.55-3.375-29.333 44.218-45.995 106.939-50.75 125.736-.673 2.788-4.03 4.04-6.71 2.583-40.93-21.828-84.164-32.25-130.599-34.602-3.796-.14-4.832 5.217-1.191 6.317 24.63 7.416 48.144 17.48 70.779 29.231 5.804 3.082 3.718 11.828-2.902 11.969-64.444 1.47-161.2 5.946-189.704 7.352-2.073.078-2.526 2.865-.583 3.594 36.835 14.615 102.094 24.538 121.295 26.584 3.576.37 4.988 4.04 3.058 6.905-2.164 3.159-13.397 9.258-27.39 10.946-30.213 3.606-92.726-5.14-91.236-4.335 8.849 5 17.776 9.629 26.715 13.81.156.077.234.154.376.218 17.115 13.516 35.202 25.855 54.17 36.648 16.739 11.904 36.613 22.556 57.227 26.89a97.73 97.73 0 012.98 1.1c2.228.806 4.171.806 5.882.295 1.554.14 3.2.434 4.754.511 53.963 3.082 91.095-31.29 108.275-51.775 3.057-3.606 9.004-.882 8.266 3.67-20.173 116.478-91.755 137.487-150.848 107.667-34.23-17.262-86.171-59.421-114.079-82.911-3.874-3.312-9.678.946-7.216 5.357 21.507 38.554 66.827 116.12 92.35 134.112 53.211 37.453 86.107 24.68 114.973 20.127 101.887-15.87 120.116-180.311 121.606-196.257-.077-.806-.233-1.611-.298-2.417-4.25-11.086-7.747-21.955-10.572-32.684-2.448-8.887-4.392-17.71-5.947-26.226-1.645-9.028-2.902-17.774-3.731-26.29"
          ></path>
          <path
            fill="#fff"
            d="M4215.125 6292.592c4.25 3.082.83 9.476-4.237 7.865-37.663-11.829-119.895-30.268-181.735 8.145v.153c-.065 0-.142-.077-.142-.077-.077 0-.156.077-.156.077v-.153c-61.84-38.413-144.072-19.974-181.722-8.146-5.053 1.612-8.486-4.782-4.314-7.864 19.343-14.104 47.47-26.584 79.926-35.624 32.442-9.028 69.276-14.54 106.11-14.54h.298c73.604 0 147.285 22.033 185.972 50.164"
          ></path>
          <path
            fill="#282828"
            d="M4508.788 5083.212c0 18.81-15.482 34.014-34.463 34.014-1.71 0-3.343-.294-4.91-.524 8.33 3.823 17.633 6.035 27.453 6.035 36.317 0 65.714-29.027 65.714-64.856 0-35.842-29.397-64.933-65.714-64.933-36.315 0-65.7 29.09-65.7 64.933 0 12.633 3.719 24.385 10.041 34.372-.816-2.865-1.412-5.883-1.412-9.04 0-18.798 15.47-34.078 34.528-34.078 18.98 0 34.463 15.28 34.463 34.077"
          ></path>
          <path
            fill="#282828"
            d="M4439.797 4672.285c-36.316 0-65.713 29.001-65.713 64.844a63.077 63.077 0 006.62 28.208c-.142-1.317-.44-2.647-.44-4.105 0-18.733 15.482-34.013 34.528-34.013 18.967 0 34.45 15.28 34.45 34.013 0 18.798-15.483 34.065-34.45 34.065-1.788 0-3.434-.294-5.066-.511 9.004 4.552 19.2 7.199 30.07 7.199 36.317 0 65.78-29.014 65.78-64.856 0-35.843-29.463-64.844-65.78-64.844"
          ></path>
          <path
            fill="#282828"
            d="M4382.79 4319.731c-36.316 0-65.778 29.014-65.778 64.857 0 9.258 2.008 17.991 5.506 25.996-.298-1.829-.531-3.67-.531-5.575 0-18.733 15.405-34.014 34.463-34.014 19.046 0 34.45 15.28 34.45 34.014 0 18.797-15.404 34.078-34.45 34.078-4.625 0-8.94-.96-12.956-2.57 10.948 8.08 24.487 12.927 39.296 12.927 36.238 0 65.713-29.014 65.713-64.856 0-35.843-29.475-64.857-65.713-64.857"
          ></path>
          <path
            fill="#d39a72"
            d="M3464.85 6459.464c-66.607 68.232-.142 99.369-2.228 138.37-2.164 39.819-54.558 102.974-69.665 124.278-1.18 1.611-.96 3.452 0 4.846.22.307.505.588.816.844-18.489-25.05 13.137-216 71.53-269.655 0 .486-.142.96-.453 1.317zm-66.892 269.323l13.914-4.195c-4.78 2.852-9.38 4.527-13.914 4.195"
          ></path>
          <path
            fill="#d39a72"
            d="M4613.409 6485.167s8.37 12.85 13.953 23.873c5.584 11.01 27.908 76.199 39.996 134.047 12.023 57.491-.467 85.342-.609 85.674-15.146-21.329-69.64-91.134-71.79-130.927-1.865-33.617 47.173-61.417 18.165-112.143l.285-.524"
          ></path>
          <path
            fill="#b4b7b9"
            d="M5078.921 4769.378c3.356-.729 6.414-1.982 9.38-3.53 51.955 193.751 147.92 374.689 196.7 441.54-78.436-76.147-205.406-276.355-447.413-600.624l211.353 156.22c8.551 6.24 19.499 8.593 29.98 6.394"
          ></path>
          <path
            fill="#b4b7b9"
            d="M3745.518 5193.386c-58.691-19.794-126.801-32.786-188.485-36.482-26.457-27.863-256.583-275.626 64.456-134.546 339.839 149.341 404.425 378.154 404.425 378.154-69.134-95.124-165.644-168.496-280.396-207.126"
          ></path>
          <path
            fill="#b4b7b9"
            d="M4412.796 5068.878s-9.924 56.302 54.571 73.436c28.154 7.48 11.233 39.909-5.726 59h-2.682c-36.018 0-108.65 4.117-189.846 31.507-105.488 35.536-185.635 93.09-238.703 165.786l-4.496 1.905s37.12-304.717 386.882-331.634"
          ></path>
          <path
            fill="#b4b7b9"
            d="M2794.203 5191.672c-6.154 11.56-11.479 20.792-15.767 27.263a5137.443 5137.443 0 0115.767-27.263zm700.148-827.275c-190.416 12.275-292.082 89.957-412.341 319.077-121.826 232.073-218.077 388.115-287.807 508.198 59.754-112.513 196.428-447.127 200.444-633.819 9.86-1.496 39.076-1.176 66.633-34.73a135.341 135.341 0 003.382-4.296l.013-.026a139.41 139.41 0 003.343-4.629c.065-.102.129-.217.207-.307a143.488 143.488 0 003.096-4.718c.143-.192.26-.422.389-.627.972-1.547 1.93-3.12 2.89-4.77.271-.46.544-.984.815-1.457.804-1.42 1.607-2.852 2.41-4.348.402-.767.804-1.598 1.205-2.378.661-1.279 1.322-2.532 1.97-3.862.57-1.163 1.114-2.404 1.671-3.606.48-1.036.959-2.02 1.438-3.082a255.05 255.05 0 003.032-7.148c.997-2.442 1.982-5.114 2.967-7.94.894-2.558 1.788-5.32 2.669-8.184.065-.256.142-.46.233-.716 1.904-6.304 3.77-13.299 5.558-20.907 11.738-49.806 19.991-126.58 12.023-209.85-5.441-56.033 54.17-96.44 105.074-71.096a1092.464 1092.464 0 0023.101 11.176 625.38 625.38 0 006.66 3.095c7.45 3.452 14.925 6.853 22.504 10.114.35.14.687.281 1.024.435a807.548 807.548 0 0025.977 10.6c.168.063.337.128.505.205a730.413 730.413 0 0027.104 9.82c57.603 19.603 123.006 33.35 208.723 38.58h1.05c3.718.076 446.208-4.259 683.59-18.363 89.086-5.281 147.945 3.9 200.34 14.104 49.259 9.552 92.649 44.576 99.425 93.717 1.879 13.695 3.757 27.198 5.649 40.599-44.647-128.216-296.423-55.995-1026.966-8.861"
          ></path>
          <path
            fill="#d39a72"
            d="M5428.244 3650.837c-1.555-.268-3.045-.434-4.612-.716 0 0 1.684.218 4.612.716zm364.766-43.54c-66.983 269.259-299.312 403.932-405.344 462.69-41.434 22.927-173.91 94.956-378.992 138.586 141.48-49.831 342.404-137.973 468.907-328.936 121.528-183.444-17.128-226.076-49.337-228.8 361.89 30.498 351.253-90.776 382.866-142.576-2.5 32.556-10.43 68.142-18.1 99.036"
          ></path>
          <path
            fill="#b4b7b9"
            d="M3017.19 4066.93s-197.528 33.042-492.435-60.598c-156.872-49.806-222.923-126.554-284.335-139.546-78.138-16.52-116.799 1.573-139.524 78.487.117-6.662.272-13.273.505-19.73 5.494-150.16 52.745-229.682 92.637-254.477.505.512 1.036.972 1.503 1.522a1244.549 1244.549 0 00100.176 105.468c119.585 111.939 319.096 251.715 590.798 281.892 43.688 4.847 87.065 7.2 130.676 6.982"
          ></path>
          <path
            fill="#b4b7b9"
            d="M5838.745 3811.239c39.866 26.265 86.767 103.92 96.912 248.76.453 6.458.83 13.043 1.179 19.693-25.278-76.122-64.535-92.963-142.077-73.91-60.945 14.987-124.404 93.832-279.515 148.714-110.658 39.142-207.855 59.576-285.928 69.895-.985-.857-1.905-1.714-2.89-2.558 39.815-13.222 80.29-27.914 120.778-44.217 251.775-101.633 415.489-218.737 491.541-366.377"
          ></path>
          <path
            fill="#b4b7b9"
            d="M4815.122 7100.508c1.93-.511 1.853-3.235-.155-3.593-52.161-9.923-104.854-3.9-146.754 23.644-1.179.805-2.89 0-2.89-1.471l-2.02-176.565c0-.805.57-1.905 1.412-1.84 76.752 5.983 132.372 32.491 154.89 58.615 49.609 57.542-4.483 101.21-4.483 101.21zM3260.74 7548.02c83.23-84.561 195.313-142.128 313.317-168.994 180.543-41.06 158.583-2.43 151.146 2.416-14.368 9.182-203.307 187.587-210.9 377.08-16.22-369.944-218.997-221.575-253.563-210.502zm-5.714 1.982c110.956-311.993-37.612-211.115-70.896-203.954 78.942-70.956 208.438-79.754 296.384-59.345 37.288 8.657-154.268 63.04-225.488 263.3zm1139.165-129.61c-244.857 32.76-228.558 301.763-380.767 206.883-282.793-176.27-499.12 131.247-499.12 131.247.375 0 75.08-169.66 205.393-253.76 193.188-124.713 384.744-132.5 335.55 71.901-.532 2.136 2.448 3.3 3.498 1.317 45.32-84.458 175.322-175.823 310.17-221.946 100.901-34.589 113.702-17.991 222.054-73.59 30.77-15.779 58.484-39.026 84.214-63.743-54.247 71.493-15.573 166.194-280.992 201.69zm-1040.634-224.03c-72.476 25.996-142.426 88.423-178.004 151.885 0 0 88.957-120.455 56.476-161.655-21.702-27.543 146.637-139.776 167.6-145.134 1.18-.294 2.371.512 2.371 1.765.376 18.145.531 135.582-48.443 153.139"
          ></path>
          <path
            fill="#d39a72"
            d="M4104.635 3476.05zm.04.038c-.027-.013-.027-.026-.027-.026l.038.037zm-7.8 41.392c-.052.012-82.09 73.68-215.888 162.627l-8.965 3.056s166.59-103.384-55.815-154.226c-439.057-100.379-889.281-14.692-1038.121-7.352-148.84 7.352-275.77-27.62-312.553-22.033-96.743 14.693-55.841 141.797 57.68 218.507 125.882 85.072 537.653 66.096 537.653 66.096s-287.963 32.838-249.289 119.355c27.908 62.427 163.623 80.163 238.678 82.976-49.622 1.777-99.607.102-149.643-5.857-236.345-28.131-416.59-160.337-535.8-287.697-58.199-62.056-124.43-177.293-91.613-255.448 3.278-7.71 6.556-14.092 9.743-18.72 38.48-55.24 154.204-33.196 216.121-29.82 8.551.435 16.96-1.982 23.878-6.905 0 0 301.035-135.262 720.256-108.333 412.548 26.495 748.008 122.514 861.477 202.382 9.018 13.733 7.593 31.495-7.8 41.392"
          ></path>
          <path
            fill="#d39a72"
            d="M5622.365 3348.972l.038.013zm0 0c-4.91-.589-9.73-2.264-14.044-4.693 9.212 2.736 13.863 4.616 14.044 4.693zm-837.482 116.298c-80.587 23.337-184.897 62.133-260.522 100.507-81.805 41.494-54.519 73.322 18.826 69.422 410.993-21.88 864.327 16.15 864.327 16.15s-724.337 28.157-1103.873 145.658c-193.007 59.767-402.326 120.467-561.491 165.708-180.725 67.17-373.875 108.23-590.307 96.364 434.237-47.53 836.162-304.96 1093.651-469.99a5652.862 5652.862 0 0169.549-43.873c149.034-82.63 519.85-216.589 729.052-247.636 247.45-36.737 425.336-5.78 561.466 44.883-.673-.448-1.399-.844-2.02-1.33 1.489 1.164 3.109 2.2 4.78 3.146-118.95-1.42-409.18 1.035-823.438 120.991"
          ></path>
          <path
            fill="#b4b7b9"
            d="M3567.423 7244.287c-22.375-6.829-42.871-14.296-61.165-22.416l3.602-179.723 57.563 202.139"
          ></path>
          <path
            fill="#b4b7b9"
            d="M4554.873 7221.36c-16.363 7.314-34.49 14.116-54.182 20.395l58.457-206.96-4.275 186.564"
          ></path>
          <path
            fill="#b4b7b9"
            d="M2273.394 4464.2c29.54 11.56 60.129 22.506 91.897 32.659 14.24 404.84 240.4 772.764 240.4 772.764-243.859-234.17-318.421-701.553-332.297-805.423"
          ></path>
          <path
            fill="#b4b7b9"
            d="M5478.203 5237.796s160.604-301.316 193.538-663.345c30.486-10.933 61.101-23.823 91.198-39.052-31.34 173.969-120.375 523.492-284.736 702.397"
          ></path>
          <path
            fill="#b4b7b9"
            d="M4575.771 4274.184c.298.012.609.012.92.026 180.906 760.386 281.368 988.073 281.368 988.073l-87.299 31.585c-45.773-148.305-146.909-512.93-205.237-1005.95l10.248-13.734"
          ></path>
          <path
            fill="#ffcfa0"
            d="M1433.929 3133.023l14.692 7.416c72.27 36.674 154.19 78.22 232.42 111.53l-50.477 53.27c-81.844-34.116-150.2-67.937-226.227-106.516l-14.692-7.43c-44.116-22.377-86.482-43.872-127.23-63.551l44.285-58.284c40.747 19.692 83.113 41.187 127.229 63.565"
          ></path>
          <path
            fill="#ffcfa0"
            d="M1780.18 2268.23c-244.87-216.73-553.367-405.991-876.026-529.106-30.616-11.163-60.648-19.602-90.486-25.587-35.655-7.148-71.349-10.805-105.955-10.805h-.038c-15.703 0-31.212.767-46.435 2.25l51.384-58.794c12.956-1.075 26.055-1.727 39.335-1.727h.038c34.606 0 70.3 3.657 105.955 10.793 29.825 5.984 59.87 14.423 90.486 25.6 323.54 123.446 632.646 313.476 877.828 530.946l-46.085 56.43"
          ></path>
          <path
            fill="#ffcfa0"
            d="M280.006 794.233c-2.76-.793-5.441-1.496-7.89-2.033-8.46-1.854-17.374-2.814-26.288-2.814-28.374 0-56.087 9.322-84.785 28.529-11.854 8.618-23.701 18.835-35.22 30.522 23.158-39.678 51.364-68.347 79.504-88.806 28.698-19.194 56.411-28.515 84.785-28.515 8.914 0 17.828.959 26.288 2.813.92.192 1.918.46 2.876.69l-39.27 59.614"
          ></path>
          <path
            fill="#ffcfa0"
            d="M4591.798 1583.99c5.17 0 10.015.32 14.29.768 30.603 3.376 61.412 17.11 93.608 41.622 134.407 100.507 277.546 145.582 359.325 153.65 5.001.499 9.445.525 14.148.755 2.177 27.07-.142 46.136-4.664 56.8-5.092 1.049-13.669 2.174-26.573 2.174-8.512 0-17.595-.486-27.195-1.445-81.779-8.081-224.918-53.156-359.325-153.663-32.196-24.5-63.005-38.246-93.608-41.622-4.275-.435-9.12-.754-14.29-.754-25.938 0-49.92 7.94-69.808 22.006.441-1.214.765-2.416 1.218-3.631 19.383-47.287 62.604-76.66 112.874-76.66"
          ></path>
          <path
            fill="#ffcfa0"
            d="M3557.24 1603.606c1.322 28.068-1.762 47.607-6.776 58.348-4.107.652-10.3 1.292-19.136 1.292-10.21 0-21.728-.845-34.191-2.532-80.989-10.933-221.653-61.059-351.577-166.233-31.263-25.753-61.542-40.612-92.04-45.036-5.364-.806-11.803-1.355-18.8-1.355-25.756 0-49.323 7.71-69.004 21.507.959-2.378 1.412-4.77 2.423-7.16 20.587-45.523 62.034-72.631 110.865-72.631 6.997 0 13.436.562 18.812 1.368 30.486 4.412 60.765 19.283 92.028 45.036 129.91 105.161 270.588 155.3 351.577 166.233 5.765.78 10.494.742 15.819 1.163"
          ></path>
          <path
            fill="#ffcfa0"
            d="M2839.07 2192.479c14.524-27.966 34.722-51.98 59.132-71.02 14.783-5.907 28.646-14.065 40.708-25.382 30.395-14.642 64.236-22.992 99.555-22.992 41.68 0 80.923 11.125 113.443 32.134 57.914 37.441 193.409 152.218 315.844 256.855l43.883 37.403c27.311 23.58 37.119 61.953 24.331 95.532-7.722 20.357-22.932 36.648-41.757 46.315 6.724-30.433-2.708-62.72-26.859-83.564l-43.882-37.402c-122.435-104.65-257.93-219.414-315.844-256.855-32.533-21.009-71.764-32.134-113.443-32.134-59.093 0-114.157 22.876-155.11 61.11"
          ></path>
          <path
            fill="#ffcfa0"
            d="M2972.466 2977.851c-12.282-23.695-26.793-45.343-42.923-63.82-36.99-42.3-89.786-70.38-148.685-79.102-13.06-1.969-26.378-2.94-39.516-2.94-18.968 0-37.611 2.02-55.724 5.945l45.903-58.577a262.226 262.226 0 0154.105-5.64c13.138 0 26.457.96 39.516 2.929 58.899 8.72 111.695 36.801 148.685 79.1 18.19 20.844 34.476 45.574 47.665 72.9l-49.026 49.205"
          ></path>
          <path
            fill="#ffcfa0"
            d="M4549.237 2253.78c9.186-13.567 10.443-8.618 0 0zm0 0c-.26.384-.505.742-.777 1.151-.182-.013-.363-.05-.544-.063.479-.37.88-.729 1.321-1.087zm492.773 407.053c-6.686 20.101-21.404 36.405-39.789 46.391l-1.736-.23c5.014-30.382-7.54-61.864-33.206-80.393-25.887-18.438-78.838-59.856-134.886-103.728-118.005-92.35-204.694-159.597-245.726-183.828-25.808-15.102-54.17-23.9-83.035-25.907 14.977-11.649 27.557-26.635 36.64-44.269 3.148-5.882 5.881-10.434 8.188-13.938 28.672 2.085 56.851 10.83 82.491 25.843 41.032 24.219 127.721 91.466 245.726 183.828 56.048 43.86 109 85.277 134.886 103.729 29.1 20.996 41.64 58.68 30.447 92.502"
          ></path>
          <path
            fill="#ffcfa0"
            d="M6521.48 2613.047l49.79-51.43c182.163 228.046 366.218 379.407 482.77 446.22 15.898 41.174 23.918 71.442 26.962 91.9-100.215-32.363-332.026-199.862-559.522-486.69"
          ></path>
          <path
            fill="#ffcfa0"
            d="M5103.966 820.625l53.159-45.458c175.075 251.587 325.755 554.066 355.89 800.96l-44.283 58.27c-30.654-251.062-185.907-559.704-364.766-813.772"
          ></path>
          <path
            fill="#ffcfa0"
            d="M3607.95 621.12l53.107-44.933c172.083 262.75 319.407 583.003 340.59 839.155v.012l-44.284 58.283c-21.546-260.512-173.573-587.325-349.413-852.517"
          ></path>
          <path
            fill="#ffcfa0"
            d="M7699.605 2041.041l58.393-41.494c28.53 35.203 54 70.917 75.637 106.273 84.047 140.288 95.81 266.868 70.21 329.972-9.717 24.078-24.993 43.655-44.155 57.798 25.394-63.245 13.513-189.518-70.338-329.486-25.096-41.02-55.543-82.438-89.748-123.063"
          ></path>
          <path
            fill="#ffcfa0"
            d="M2895.274 1633.273c-85.005-141.848-205.354-265.026-338.945-351.723l26.573-69.409c129.315 80.188 247.306 194.723 334.449 327.875-11.298 31.137-19.33 62.299-22.077 93.257"
          ></path>
          <path
            fill="#ffcfa0"
            d="M4105.205 2256.709c78.255 62.695 139.084 135.402 183.213 224.861 14.148 28.669-29.022 47.159-41.071 17.096-34.658-86.479-83.437-168.764-144.72-239.413-1.542-1.777.765-3.99 2.578-2.544"
          ></path>
          <path
            fill="#ffcfa0"
            d="M5704.844 2482.695c120.129 122.488 212.752 272.941 202.685 447.613-.194 3.364-4.897 4.08-5.96.806-50.8-156.016-97.106-314.55-197.684-447.69-.414-.55.492-1.202.959-.729"
          ></path>
          <path
            fill="#ffcfa0"
            d="M7640.926 2868.368c75.172 75.7 164.44 196.307 137.31 309.192-1.426 5.946-10.366 7.11-13.32 1.714-24.111-44.154-31.366-95.443-48.56-142.449-21.325-58.335-44.322-113.818-78.293-166.27-1.127-1.727 1.425-3.632 2.863-2.187"
          ></path>
          <path
            fill="#ffcfa0"
            d="M1917.1 3320.162c-174.09-11.904-328.644-55.163-479.75-141.745-19.616-11.253-2.074-40.88 17.775-30.024 142.167 77.72 302.629 139.392 462.131 170.593.674.128.531 1.227-.155 1.176"
          ></path>
          <path
            fill="#ffcfa0"
            d="M534.801 3046.659c43.908-33.86 107.86-79.472 166.188-79.575 8.732-.026 12.814 12.583 4.6 16.751-23.827 12.11-52.356 16.112-77.867 24.628-31.936 10.665-62.526 23.273-92.182 39.142-.583.307-1.309-.512-.739-.946"
          ></path>
          <path
            fill="#ffcfa0"
            d="M2310.228 3616.926s-75.806-232.189 188.835-227.982c0 0-186.684-42.683-223.389 34.04-36.705 76.722 34.554 193.942 34.554 193.942"
          ></path>
          <path
            fill="#ffcfa0"
            d="M3534.696 6889.418s-13.824-262.2 23.088-512.073c19.888-134.558 50.037-284.014 115.024-345.341 0 0-147.064 98.192-157.766 358.96-10.702 260.768 19.654 498.455 19.654 498.455"
          ></path>
          <path
            fill="#ffcfa0"
            d="M4523.26 6889.418s13.824-262.2-23.1-512.073c-19.888-134.558-50.037-284.014-115.025-345.341 0 0 147.078 98.192 157.767 358.96 10.701 260.768-19.642 498.455-19.642 498.455"
          ></path>
        </g>
      </g>
    </svg>